<?xml version="1.0" encoding="utf-8"?>
<!-- Generator: Adobe Illustrator 22.0.1, SVG Export Plug-In . SVG Version: 6.00 Build 0)  -->
<svg version="1.1" id="Layer_1" xmlns="http://www.w3.org/2000/svg" xmlns:xlink="http://www.w3.org/1999/xlink" x="0px" y="0px"
	 height="54" width="35" viewBox="0 0 45 70" style="enable-background:new 0 0 45 70;" xml:space="preserve">
<style type="text/css">
	.st0{fill:#11C900;}
	.st1{fill:#55FF7B;}
	.st2{fill:url(#SVGID_1_);}
	.st3{fill:url(#SVGID_2_);}
	.st4{fill:#FFFFFF;}
</style>
<path class="st0" d="M22.5,12.5v45l13.4-19.4c1.8-2.6,2.9-5.9,2.9-9.3C38.8,19.8,31.5,12.5,22.5,12.5z"/>
<path class="st1" d="M36.1,28.8c0-9-6.1-16.3-13.6-16.3c-9,0-16.3,7.3-16.3,16.3c0,3.5,1.1,6.7,2.9,9.3l13.4,19.4l11.1-19.4
	C35.2,35.5,36.1,32.3,36.1,28.8z"/>
<g>
	
		<linearGradient id="SVGID_1_" gradientUnits="userSpaceOnUse" x1="-83.1832" y1="481.9502" x2="-70.492" y2="494.6414" gradientTransform="matrix(1.0667 0 0 1.0667 104.1171 -492.4806)">
		<stop  offset="0" style="stop-color:#941000"/>
		<stop  offset="1" style="stop-color:#AD1A00"/>
	</linearGradient>
	<ellipse class="st2" cx="22.5" cy="28.7" rx="13.1" ry="13.1"/>
	
		<radialGradient id="SVGID_2_" cx="2076.1646" cy="1247.1534" r="201.3302" gradientTransform="matrix(6.860386e-02 0 0 6.873910e-02 -119.9329 -56.8806)" gradientUnits="userSpaceOnUse">
		<stop  offset="0" style="stop-color:#D41100;stop-opacity:0"/>
		<stop  offset="0.239" style="stop-color:#C91A00;stop-opacity:0.24"/>
		<stop  offset="0.589" style="stop-color:#B90400;stop-opacity:0.59"/>
		<stop  offset="1" style="stop-color:#A52E00"/>
	</radialGradient>
	<ellipse class="st3" cx="22.5" cy="28.8" rx="11.4" ry="11.4"/>
	<rect x="24.8" y="26.6" class="st4" width="2.4" height="4.2"/>
	<rect x="17.8" y="26.6" class="st4" width="2.4" height="4.2"/>
	<polygon class="st4" points="27.2,22.7 27.2,20 24.8,20 24.8,22.7 17.8,22.7 17.8,25.4 27.2,25.4 	"/>
	<path class="st4" d="M27.2,31.9h-2.3c0,0.1,0,0.3,0,0.4c-0.2,1.3-1,2.3-2.3,2.3s-2.4-1.1-2.4-2.5v-0.3h-2h-0.4v5.5h2.4v-0.8
		c0.7,0.5,1.5,0.7,2.3,0.7c2.4,0,4.4-2.1,4.6-4.4C27.1,32.6,27.2,32.2,27.2,31.9z"/>
</g>
</svg>
