<?xml version="1.0" encoding="utf-8"?>
<!-- Generator: Adobe Illustrator 22.0.1, SVG Export Plug-In . SVG Version: 6.00 Build 0)  -->
<svg version="1.1" id="Layer_1" xmlns="http://www.w3.org/2000/svg" xmlns:xlink="http://www.w3.org/1999/xlink" x="0px" y="0px"
	 viewBox="0 0 511 511" style="enable-background:new 0 0 511 511;" xml:space="preserve">
<style type="text/css">
	.st0{fill:#E6E9ED;}
	.st1{fill:#FC6E51;}
	.st2{fill:#FF826E;}
	.st3{fill:#EDB4A2;}
	.st4{fill:#F3CDC1;}
	.st5{fill:#AE2B00;}
	.st6{fill:#E48D72;}
	.st7{fill:#8E1600;}
	.st8{fill:#D65128;}
	.st9{fill:#884D00;}
	.st10{fill:#AA6100;}
	.st11{fill:#FFA733;}
	.st12{fill:#FFB655;}
	.st13{fill:#EEBF00;}
	.st14{fill:#FFD422;}
	.st15{fill:#6DC82A;}
	.st16{fill:#7ED63E;}
	.st17{fill:#FF3501;}
	.st18{fill:#FF5023;}
	.st19{fill:#FFF5CC;}
	.st20{fill:#FFEBA1;}
	.st21{fill:#F7D36F;}
	.st22{fill:#FFDB57;}
	.st23{fill:#F6C134;}
	.st24{fill:#F2433B;}
	.st25{fill:#D83636;}
	.st26{fill:#FF9F34;}
	.st27{fill:#FB8F2D;}
</style>
<g>
	<g>
		<path class="st0" d="M253.9,75.8c12.9-1.7,26-2.8,47.4-3.4c2.7,6.2,4.2,13,4.2,20.2c0,19.6-11,36.6-27.1,45.1
			c-5.5-5.5-11.7-11.1-18.5-16.6c-2.1-1.7-4.2-3.4-6.4-5.1c-8.5-6.5-17.7-12.8-27.4-18.4c-7.3-4.3-14.8-8.2-22.5-11.6
			C220,81.6,236.9,78.1,253.9,75.8L253.9,75.8z"/>
		<path class="st1" d="M301.3,72.4c-21.4,0.6-34.4,1.7-47.4,3.4c-17,2.3-33.9,5.8-50.4,10.3c-5.7-2.5-11.5-4.8-17.3-6.6
			c-6.5-2.1-13.1-3.9-19.7-5.1C207.8,59.7,251.3,52,295.4,52c5.4,0,9.6-4.2,10-9.5c8.1,8.3,10.1,16,10.1,19.7c0,2.8-1.1,5.3-3,7.2
			c-1.8,1.9-4.3,3-7.1,3C304,72.3,302.7,72.3,301.3,72.4L301.3,72.4z"/>
		<path class="st2" d="M138.2,20.7c15.6-5.7,31.5-9.2,47.1-9.2c73.2,0,106,16.4,120.1,31v0.1c-0.4,5.3-4.6,9.5-10,9.5
			c-44.1,0-87.7,7.6-128.9,22.3h-0.1c-7.1-1.3-14.2-2-21.2-2c-6,0-11.7,0.1-17.1,0.3c-47.1,1.8-74.9,11-91.1,21.2
			c13-16.9,35.6-37.5,62.2-54C111.5,32.4,124.7,25.7,138.2,20.7L138.2,20.7z"/>
		<path class="st0" d="M29.3,133.2c38.5,1.1,68.3,5.7,97.3,13.6c32.9,9,64.7,22.5,94.5,40l3.4,2c7.3,4.3,14.9,7.7,22.8,10.2
			c-6.6,3.3-14.1,5.1-21.9,5.1H75.2c-27.6,0-50.1-22.7-50.1-50.7C25.1,146.3,26.6,139.5,29.3,133.2L29.3,133.2z"/>
		<path class="st1" d="M29.3,133.2c-1.4-0.1-2.8-0.1-4.2-0.1c-2.8,0-5.3-1.1-7.1-3c-1.9-1.8-3-4.4-3-7.2c0-3.7,2-11.4,10.1-19.7
			c0.4,5.3,4.6,9.5,10,9.5c68.8,0,136.5,18.5,195.9,53.7l3.4,2c17,10,36.3,15.3,56,15.3c5.7,0,10.8-2,15-5.2v0.1
			c0,14-11.2,25.4-25,25.4c-11.3,0-22.5-1.7-33.1-5.1c-7.9-2.5-15.6-5.9-22.8-10.2l-3.4-2c-29.7-17.5-61.5-31-94.5-40
			C97.6,138.9,67.7,134.4,29.3,133.2L29.3,133.2z"/>
		<path class="st2" d="M128.1,72.6c5.5-0.2,11.2-0.3,17.1-0.3c7,0,14.1,0.7,21.2,2h0.1c6.6,1.2,13.2,2.9,19.7,5.1
			c5.9,1.9,11.6,4.2,17.3,6.6c7.7,3.4,15.3,7.3,22.5,11.6c9.7,5.6,18.9,11.9,27.4,18.4c2.2,1.7,4.3,3.3,6.4,5.1
			c6.8,5.5,13,11.1,18.5,16.6c16.7,16.6,27,32.2,27.1,41c-4.2,3.2-9.4,5.2-15,5.2c-19.7,0-39-5.3-56-15.3l-3.4-2
			c-59.5-35.1-127.1-53.7-195.9-53.7c-5.4,0-9.6-4.2-10-9.5v-0.1c3.1-3.1,6.9-6.3,11.9-9.4C53.2,83.6,81.1,74.5,128.1,72.6
			L128.1,72.6z"/>
	</g>
	<g>
		<path d="M320.4,62.2c0-2.3-1.5-55.8-135.2-55.8c-59.7,0-124.2,48.5-151.6,83.5c-23.1,14.9-23.6,31.9-23.6,33.1
			c0,7.4,5.3,13.6,12.2,14.9c-1.4,5-2.2,10.2-2.2,15.5c0,30.8,24.7,55.8,55.1,55.8h150.2c7.8,0,15.3-1.7,22.3-4.8
			c10.6,3.2,21.6,4.8,32.8,4.8c16.6,0,30-13.6,30-30.4c0-9.1-9.1-24.1-24.1-40.1c15-10.3,24.1-27.4,24.1-46.1
			c0-5.3-0.8-10.5-2.2-15.5C315.2,75.8,320.4,69.6,320.4,62.2z M99,46.2c5.5,4.3,9.8,8.9,12.5,13.5l8.6-5.2
			c-2.8-4.9-6.9-9.5-12-13.9c9.5-5.5,19.4-10.3,29.5-14.2c9.3,5.9,22.5,16.7,22.5,30.7h10c0-15.3-10.7-27.1-20.7-34.8
			c11.9-3.6,24-5.8,35.7-5.8c1.7,0,3.3,0,5,0.1c7,5.7,15,14.6,15,25.3h10c0-8.6-3.5-17.1-10.2-24.9c56.2,2.5,82.4,15.8,94.6,27.3
			c-0.8,1.6-2.5,2.7-4.3,2.7c-44.1,0-87.6,7.5-129.3,22.1c-7-1.2-13.9-1.9-20.9-1.9c-39.9,0-68,4.8-87.8,11.5
			C68.9,67.7,83.2,56.2,99,46.2L99,46.2z M216.6,98c-9.9,7.5-21.3,19.5-21.3,35.2h10c0-13.3,12.2-23.8,20.9-29.7
			c9.3,5.6,18,11.7,26.1,18c-7.9,8.4-11.9,17.4-11.9,26.9h10c0-7,3.3-13.8,9.7-20.5c22.3,18.8,37.5,38.1,39.9,48.3
			c-3,1.7-6.3,2.6-9.6,2.6c-18.8,0-37.2-5.1-53.5-14.6l-3.4-2c-60.2-35.6-128.8-54.3-198.4-54.3c-1.9,0-3.5-1.1-4.3-2.7
			c11.4-10.8,35.1-23.1,84.1-26.7c-6.3,7.7-9.7,15.9-9.7,24.3h10c0-10.6,7.7-19.3,14.7-25.1c4.9-0.2,9.9-0.3,15.3-0.3
			c9.5,0,19.1,1.3,28.6,3.7c-10.8,7.6-23.6,20.1-23.6,36.9h10c0-16.1,17.4-28,26.6-33.1C197,88.3,207,92.8,216.6,98L216.6,98z
			 M225.3,199.1H75.2c-24.8,0-45.1-20.5-45.1-45.6c0-5.2,0.9-10.3,2.6-15.1c65.3,1.3,129.4,19.5,185.8,52.8l3.4,2
			c3.3,2,6.8,3.7,10.2,5.3C229.9,198.9,227.6,199.1,225.3,199.1L225.3,199.1z M280.4,199.1c-18.8,0-37.2-5.1-53.5-14.6l-3.4-2
			c-60.2-35.6-128.8-54.3-198.4-54.3c-2.8,0-5-2.3-5-5.1c0-0.1,0.3-4.3,4-10c2.7,3,6.6,5,11,5c67.9,0,134.8,18.3,193.4,53l3.4,2
			c17.7,10.5,38,16,58.5,16c2.7,0,5.3-0.5,7.9-1.2C295,194.5,288.2,199.1,280.4,199.1z M279.1,131.3c-16.1-15.7-37.2-31.7-60.5-43.8
			c26-6.1,52.5-9.4,79.2-10c1.7,4.8,2.6,9.9,2.6,15.1C300.4,108.5,292.3,123,279.1,131.3z M305.4,67.3c-34.1,0-68.1,4.5-101.1,13.4
			c-6.4-2.7-12.8-5.1-19.4-7.1c35.8-10.9,72.9-16.5,110.5-16.5c4.4,0,8.2-1.9,11-5c3.7,5.7,4,9.9,4,10
			C310.4,65,308.2,67.3,305.4,67.3z"/>
		<path d="M50.1,153.5c0-1.4,0.1-2.8,0.3-4.2l-9.9-1.7c-0.3,1.9-0.5,3.9-0.5,5.9c0,19.6,15.7,35.5,35,35.5h10v-10.1h-10
			C61.4,178.8,50.1,167.4,50.1,153.5z"/>
		<path d="M95.2,178.8h10V189h-10V178.8z"/>
		<path d="M115.2,178.8h10V189h-10V178.8z"/>
		<path d="M246.8,91.1l7.1-7.2l5,5.1l-7.1,7.2L246.8,91.1z"/>
		<path d="M266.8,104.3l5-5.1l7.1,7.2l-5,5.1L266.8,104.3z"/>
		<path d="M276.8,91.1l7.1-7.2l5,5.1l-7.1,7.2L276.8,91.1z"/>
	</g>
</g>
<g>
	<path class="st3" d="M505.7,190.3c0-45.4-49.2-82.1-109.8-82.1c-20.5,0-39.6,4.2-56,11.5c-18.3,8.2-37.6,13.6-56.5,20.2
		c-27.4,9.4-46.2,28.5-46.2,50.5v37.9c0,22,18.8,41,46.2,50.5c18.9,6.5,38.2,12,56.5,20.2c16.4,7.3,35.5,11.5,56,11.5
		c60.6,0,109.8-36.8,109.8-82.1V190.3z"/>
	<path class="st4" d="M395.9,108.2c-18.5,0-35.9,3.4-51.1,9.5c-18.2,7.2-36.3,15-55.2,20.3c-30.7,8.6-52.3,28.8-52.3,52.4
		s21.6,43.8,52.3,52.4c18.9,5.3,36.9,13.1,55.2,20.3c15.3,6,32.6,9.5,51.1,9.5c60.6,0,109.8-36.8,109.8-82.1
		C505.7,144.9,456.5,108.2,395.9,108.2z"/>
	<path class="st5" d="M492.7,199.1c1.3-6.9-3.1-13.6-9.8-14.9c-0.7-0.1-1.5-0.2-2.2-0.2h-36c-24.4,0-23.4,9.6-23.4,12.6
		c0,3.1,1.2,6,3.3,8.2c8.1,8.3,11.5,16.5,12.9,31.8c0.8,8.3,9.5,13.1,16.7,9.3C474.9,234.9,489.3,218.2,492.7,199.1z"/>
	<path class="st6" d="M499,188.6c-0.2,0-0.4,0-0.6,0c-3.4,0.3-5.8,3.4-5.5,6.9c0,0.2,0,0.5,0,0.7v0l0,0v0l0,0v0.1l0,0v0.1l0,0v0.1
		v0.1v0l0,0v0v0.1v0c0,0.1,0,0.2,0,0.3v0c0,0,0,0.1,0,0.1v0c0,0,0,0.1,0,0.1v0c0,0,0,0.1,0,0.1l0,0v0l0,0v0c0,0,0,0,0,0.1l0,0v0l0,0
		v0l0,0.1v0l0,0v0l0,0v0l0,0v0l0,0v0l0,0v0l0,0v0l0,0l0,0v0l0,0l0,0v0l0,0c0,0,0,0,0,0.1v0l0,0v0l0,0v0c0,0,0,0,0,0.1v0l0,0l0,0l0,0
		v0c0,0,0,0.1,0,0.1l0,0l0,0v0l0,0.1v0l0,0v0c0,0,0,0.1,0,0.1v0l0,0l0,0c0,0,0,0.1,0,0.1l0,0l0,0v0c0,0,0,0.1,0,0.1l0,0l0,0v0l0,0v0
		c0,0,0,0,0,0.1v0l0,0l0,0l0,0l0,0c0,0,0,0,0,0.1l0,0l0,0l0,0l0,0l0,0l0,0l0,0l0,0l0,0l0,0l0,0l0,0l0,0c0,0,0,0,0,0c0,0,0,0,0,0.1
		l0,0l0,0.1c0,0,0,0,0,0l0,0l0,0l0,0c0,0,0,0,0,0l0,0l0,0.1v0c0,0,0,0.1,0,0.1v0l0,0.1l0,0l0,0.1l0,0l0,0l0,0l0,0.1l0,0
		c0,0,0,0,0,0.1v0c0,0.1,0,0.1,0,0.2v0l0,0.1l0,0l0,0.1l0,0c0,0,0,0,0,0.1v0c0,0.1,0,0.2-0.1,0.3v0c-1.9,9.1-6.3,17.6-12.7,25.1
		l0,0.1l0,0c0,0,0,0,0,0.1l0,0c-0.1,0.1-0.1,0.2-0.2,0.3l0,0c0,0,0,0,0,0l0,0l0,0l0,0l0,0l0,0c0,0,0,0,0,0v0l-0.1,0.1l0,0
		c0,0,0,0,0,0l0,0c0,0,0,0,0,0l0,0.1l0,0l0,0l0,0l0,0l0,0l0,0l0,0c0,0,0,0,0,0l0,0l0,0l0,0l0,0l0,0l0,0l0,0l0,0l0,0l0,0l0,0l0,0
		c0,0-0.1,0.1-0.1,0.1l0,0c0,0,0,0,0,0l0,0l0,0l0,0l0,0l0,0c0,0,0,0,0,0l0,0c-0.1,0.1-0.1,0.1-0.2,0.2c0,0,0,0,0,0l0,0l0,0l0,0
		c-0.3,0.4-0.6,0.7-1,1.1c-0.1,0.1-0.2,0.2-0.2,0.3c-0.1,0.1-0.2,0.2-0.2,0.2c-5.3,5.5-11.3,10.2-17.8,14.1l0,0
		c-0.1,0.1-0.2,0.1-0.3,0.2l-0.1,0l0,0c-0.1,0-0.2,0.1-0.2,0.1l0,0l-0.1,0l0,0c0,0,0,0-0.1,0l0,0c-0.1,0-0.2,0.1-0.2,0.1l0,0
		c-0.1,0-0.2,0.1-0.2,0.1c-0.1,0.1-0.2,0.1-0.4,0.2h0l-0.1,0l0,0l-0.1,0l0,0c-0.1,0-0.1,0.1-0.2,0.1l0,0c0,0,0,0-0.1,0l0,0
		c0,0,0,0-0.1,0l0,0c-0.1,0-0.1,0.1-0.2,0.1l0,0c0,0,0,0-0.1,0l0,0l0,0l0,0c-0.1,0-0.1,0.1-0.2,0.1l0,0l0,0l0,0l0,0l0,0l0,0l0,0
		c0,0-0.1,0-0.1,0.1l0,0l-0.1,0l0,0l0,0l0,0l0,0l0,0l-0.1,0.1l0,0l0,0l0,0l0,0l0,0l0,0l0,0c0,0-0.1,0-0.1,0.1l0,0l0,0l-0.1,0l0,0
		l0,0l0,0l-0.1,0l0,0l-0.1,0l0,0l0,0l-0.1,0l0,0l-0.1,0l0,0l0,0l-0.1,0v0l-0.1,0l0,0l-0.1,0l0,0l-0.1,0c0,0,0,0-0.1,0l0,0l0,0l0,0
		l0,0l0,0l0,0l-0.1,0l0,0l-0.1,0c-1.6,0.9-3.5,1.3-5.3,1.3c-5.9,0-10.8-4.5-11.4-10.6c0,0,0,0,0-0.1l0,0c0,0,0,0,0,0l0,0l0,0l0,0
		c0,0,0,0,0-0.1h0l0-0.1v0l0,0v0c0,0,0,0,0-0.1v0c0,0,0,0,0,0l0,0l0,0l0,0c0,0,0,0,0-0.1l0,0l0,0v0l0,0v0c0,0,0,0,0-0.1v0l0,0l0,0
		l0,0l0,0l0-0.1v0l0,0v0c0,0,0,0,0-0.1v0l0-0.1v0l0,0l0,0l0,0v0l0-0.1v0c0,0,0,0,0,0l0,0l0,0l0,0c0,0,0,0,0-0.1l0,0c0,0,0,0,0,0l0,0
		c0,0,0,0,0-0.1c0,0,0,0,0-0.1l0-0.1l0,0c0,0,0,0,0,0l0,0l0-0.1v0c0,0,0,0,0,0l0,0c0,0,0-0.1,0-0.1v0c0,0,0,0,0,0v0
		c0-0.1,0-0.1,0-0.2v0c0-0.1,0-0.1,0-0.2l0,0c0,0,0,0,0,0v0c0,0,0,0,0-0.1l0,0c0,0,0,0,0,0l0,0c0,0,0,0,0,0l0,0l0-0.1l0,0
		c0,0,0,0,0,0l0,0c0,0,0,0,0,0l0,0l0-0.1l0,0l0,0l0,0l0,0v0c0,0,0,0,0-0.1l0,0c0,0,0,0,0,0l0,0l0-0.1c0,0,0,0,0-0.1v0l0,0l0,0l0,0
		l0,0l0,0l0,0c0,0,0,0,0,0l0,0c0,0,0,0,0,0l0,0c0,0,0-0.1,0-0.1l0,0c0,0,0,0,0,0l0,0c0,0,0,0,0,0l0,0l0,0l0,0c0,0,0,0,0,0l0,0
		c0,0,0,0,0,0v0l0,0l0,0l0,0l0,0l0,0l0,0c0,0,0,0,0,0l0,0c0,0,0,0,0,0l0,0l0,0l0,0l0,0l0,0c0,0,0,0,0,0l0,0l0,0l0,0c0,0,0,0,0,0l0,0
		c0,0,0,0,0,0l0,0l0,0l0,0c0,0,0,0,0,0l0-0.1l0,0l0-0.1l0,0l0,0l0,0l0,0l0,0l0,0c0,0,0,0,0,0v0l0,0l0,0l0,0l0,0l0,0l0,0l0,0l0,0
		c0,0,0,0,0,0l0,0l0,0l0,0c0,0,0,0,0,0l0,0c0,0,0,0,0,0c0,0,0,0,0,0l0,0c0,0,0,0,0,0l0,0c0,0,0,0,0,0l0,0l0,0l0,0l0,0l0,0l0,0l0,0
		l0,0l0,0l0,0l0,0l0,0l0,0l0,0l0,0l0,0l0,0l0,0c0,0,0,0,0,0l0,0l0,0l0,0l0,0l0,0c0,0,0,0,0,0v0l0,0l0,0l0,0l0,0l0,0l0,0l0,0l0,0l0,0
		c0,0,0,0,0-0.1l0,0l0,0l0,0l0,0l0,0l0-0.1l0,0l0-0.1l0,0l0-0.1l0,0l0,0l0,0l0,0l0,0l0,0l0,0l0,0l0,0l0,0l0,0l0,0l0,0c0,0,0,0,0,0
		l0,0l0,0l0,0l0,0v0c0,0,0,0,0-0.1l0,0l0,0l0,0l0,0l0,0c0,0,0,0,0-0.1l0,0l0,0l0,0l0,0l0,0c0,0,0,0,0-0.1l0,0l0,0l0,0l0,0l0,0
		c0,0,0,0,0-0.1l0,0l0,0l0,0l0,0l0,0l0-0.1l0,0c0,0,0,0,0,0v0c0,0,0-0.1,0-0.1v0l0,0l0,0c0,0,0-0.1,0-0.1l0,0c0,0,0-0.1,0-0.1l0,0
		c0,0,0,0,0,0l0,0l0-0.1l0,0c0,0,0,0,0,0v0c0,0,0-0.1,0-0.1c0,0,0-0.1,0-0.1v0l0,0l0,0c0,0,0-0.1,0-0.1v0c0,0,0,0,0,0
		c0,0,0-0.1,0-0.1l0,0c0,0,0,0,0,0v0l0-0.1v0l0,0l0,0c0,0,0,0,0,0l0,0c0,0,0-0.1,0-0.1l0,0l0,0l0,0c0,0,0-0.1,0-0.1v0
		c0,0,0-0.1,0-0.1l0,0c0,0,0-0.1,0-0.1v0c0,0,0-0.1,0-0.1l0,0c0-0.1,0-0.2-0.1-0.3l0,0l0,0l0,0c0,0,0-0.1,0-0.1l0,0c0,0,0-0.1,0-0.1
		v0l0-0.1l0,0l0,0l0,0c0,0,0-0.1,0-0.1l0,0l0,0l0,0c0,0,0-0.1,0-0.1v0l0,0l0,0c0,0,0-0.1,0-0.1l0,0v0l0-0.1v0c0,0,0-0.1,0-0.1l0,0
		c0,0,0-0.1,0-0.1l0,0l0,0v0c0,0,0-0.1,0-0.1v0c0,0,0-0.1,0-0.1l0,0l0,0l0,0c0,0,0-0.1,0-0.1l0-0.1l0-0.1l0,0l0,0l0,0l0,0l0,0
		c0-0.1,0-0.2-0.1-0.2l0,0l0,0l0,0c0,0,0-0.1,0-0.1l0,0c0,0,0,0,0,0l0,0c0,0,0-0.1,0-0.1l0,0l0,0l0,0l0,0l0-0.1l0,0l0,0l0,0l0,0l0,0
		c0,0,0-0.1,0-0.1l0,0l0,0l0,0l0-0.1l0,0l0,0l0,0c0,0,0-0.1,0-0.1l0,0l0,0l0,0l0-0.1l0,0l0,0l0,0l0,0l0,0c0,0,0,0,0,0l0,0l0,0l0,0
		l0,0l0,0c0,0,0,0,0,0l0,0l0,0l0,0l0,0l0,0c0,0,0,0,0,0l0,0c0,0,0,0,0,0l0,0l0,0l0,0l0,0l0,0l0,0l0,0l0,0l0,0l0,0l0,0l0,0l0,0l0,0
		l0,0l0,0l0,0l0,0l0,0l0,0l0,0l0,0l0,0l0,0l0,0l0,0l0,0l0,0l0,0l0,0l0,0l0,0l0,0l0,0l0,0l0,0l0,0l0,0l0,0l0,0l0,0l0,0c0,0,0,0,0,0
		l0,0l0,0l0,0c0,0,0,0,0,0l0,0l0,0l0,0l0,0c0,0,0,0,0,0v0l0,0l0,0l0,0l0,0c0,0,0,0,0,0v0l0,0l0,0l0,0l0,0l0-0.1l0,0l0,0l0,0l0,0v0
		l0-0.1l0,0c0-0.1-0.1-0.2-0.1-0.2v0c-0.8-2.5-1.9-4.9-3.2-7.1c-1.7-3-5.5-4-8.4-2.2c-2.9,1.8-3.9,5.6-2.2,8.7c0,0,0,0,0,0
		c2.4,4.2,3.7,9.5,4.5,17.8c1.2,12.5,11.4,22.1,23.6,22c3.8,0,7.5-1,10.9-2.7c9.4-4.9,17.9-11.3,25.4-18.9c0.1-0.1,0.2-0.2,0.3-0.3
		c0.1-0.1,0.2-0.2,0.3-0.3c10-10.7,16.6-23.2,18.9-36.2c0.4-2.3,0.5-4.7,0.3-7.1C504.7,191.1,502.1,188.6,499,188.6L499,188.6z"/>
	<path class="st5" d="M395.9,145c8.1,7,17,13,26.4,17.9c20,10.2,48.5,8.5,48.5,8.5c9.2,0,13.6-11.3,7.4-18.3
		c-15.3-17.1-40.6-29.1-70.1-31.7C383.7,120.8,383.7,133.4,395.9,145z"/>
	<path class="st6" d="M410.5,157.1c-3.4,0-6.1,2.8-6.1,6.3c0,2.2,1.1,4.3,3,5.4c3.1,1.9,6.3,3.7,9.6,5.4c16.9,8.6,38,9.9,49,9.9
		c2.6,0,4.5-0.1,5.2-0.1c0.9,0,1.9-0.1,2.8-0.2c0.5-0.1,0.9-0.2,1.4-0.2c9-1.9,16-9.3,17.6-18.7c0.6-3.4-1.6-6.7-4.9-7.3
		c-3.3-0.6-6.5,1.7-7.1,5.1c0,0,0,0.1,0,0.1v0l0,0v0l0,0v0l0,0l0,0l0,0l0,0l0,0l0,0l0,0v0l0,0l0,0l0,0l0,0l0,0l0,0l0,0l0,0l0,0l0,0
		l0,0l0,0l0,0l0,0l0,0l0,0l0,0l0,0v0l0,0l0,0l0,0v0l0,0v0l0,0l0,0c0,0.1-0.1,0.3-0.1,0.4c-0.4,1.7-1.3,3.3-2.5,4.6v0l0,0l0,0h0l0,0
		l0,0l0,0l0,0l0,0l0,0l0,0l0,0l-0.1,0.1l0,0l0,0l0,0l0,0l0,0l0,0l0,0l0,0c0,0,0,0-0.1,0.1l0,0l0,0l0,0l0,0l0,0l0,0l0,0l0,0l0,0l0,0
		l0,0l0,0l0,0l0,0l0,0l0,0l0,0l0,0l0,0l0,0l0,0l0,0l0,0l0,0l0,0l0,0l0,0l0,0l0,0l0,0l0,0l0,0l0,0l0,0l0,0l0,0l0,0l0,0
		c-0.1,0.1-0.2,0.2-0.3,0.3l0,0l0,0h0l0,0c-1.2,0.9-2.6,1.6-4,1.9c-0.1,0-0.2,0-0.3,0.1c-0.1,0-0.2,0-0.3,0c-0.2,0-0.4,0.1-0.7,0.1
		h0l0,0h0l0,0h0l0,0h0c0,0-0.1,0-0.1,0h0l0,0h0l0,0h0l0,0h0l0,0h0c0,0,0,0-0.1,0h0l0,0h-0.1l0,0h0l0,0H471l0,0h-0.1l0,0h-0.1
		c0,0-1.8,0.1-4.8,0.1c-9,0-28.7-1-43.7-8.6l-0.1,0c0,0,0,0,0,0l0,0c0,0-0.1,0-0.1-0.1l0,0l-0.1,0l0,0l-0.1-0.1l-0.1,0
		c0,0-0.1,0-0.1-0.1l-0.1,0l0,0c-0.1,0-0.1-0.1-0.2-0.1l0,0c0,0-0.1,0-0.1-0.1l0,0c0,0,0,0-0.1,0l0,0c0,0-0.1,0-0.1-0.1l0,0
		c0,0,0,0-0.1,0l0,0l-0.1,0l0,0c0,0,0,0-0.1,0l0,0l-0.1,0l0,0c0,0,0,0-0.1,0l0,0c0,0,0,0-0.1,0l-0.1,0l0,0l0,0l0,0c0,0,0,0-0.1,0
		l0,0c0,0,0,0,0,0l0,0l0,0l0,0l0,0c0,0,0,0,0,0l-0.1,0l0,0l0,0c0,0,0,0-0.1,0l0,0l0,0l0,0l0,0l0,0c0,0-0.1,0-0.1,0l0,0l0,0l0,0l0,0
		l0,0l-0.1-0.1l0,0l0,0l0,0c-1.2-0.7-2.5-1.4-3.7-2.1l0,0l0,0l0,0l0,0l0,0c0,0-0.1,0-0.1,0l0,0l0,0l-0.1,0c0,0,0,0,0,0l0,0
		c0,0,0,0-0.1,0l0,0l0,0l0,0c-0.5-0.3-1.1-0.7-1.6-1C412.7,157.4,411.6,157.1,410.5,157.1z"/>
	<path class="st5" d="M273.9,158.7h-3.5c-18.1,0-34.1,15.1-33,33.8c0,0.4,0.1,0.8,0.1,1.1l-0.1,31.9c-1.6,23.1,17.5,43.3,46.1,53.2
		c2.2,0.8,4.4,1.5,6.6,2.2c22.1,7.4,44.8-9.7,44.8-33.8C334.9,221.9,334.9,158.7,273.9,158.7z"/>
	<path class="st5" d="M409.2,196.6c0-3.8,1-7.6,2.7-11c3.1-6,1.1-13.5-4.7-17c-8.4-5.2-16.2-11.2-23.5-17.9
		c-0.5-0.5-1.7-1.6-3.2-3.1c-13.2-13.2-32.6-17.4-49.8-10.8c-15.7,4.6-15.1,20-8,27.2c19.6,19.4,23.4,50.2,24.2,70.5
		c0,12.6,8.9,19.1,12.4,20.1c11.9,3.4,24.2,5.2,36.6,5.2c1.7,0,3.4,0,5.1-0.1c15.2-0.6,26.4-15.4,23-30.8c-1.5-6.8-4-11-8.1-15.2
		C411.6,209.2,409.1,203,409.2,196.6z"/>
	<path class="st6" d="M425.4,209.3c-3.4,0-6.1,2.8-6.1,6.3c0,1.2,0.3,2.4,1,3.4l0,0l0,0c0,0,0,0,0,0.1l0,0l0,0l0,0l0,0l0,0l0,0l0,0
		h0c0,0,0,0.1,0,0.1l0,0c0,0,0,0,0,0l0,0l0,0l0,0l0,0v0c0,0,0,0.1,0.1,0.1l0,0l0,0l0,0c0.9,1.5,1.6,3.1,2.2,4.7v0
		c0,0.1,0.1,0.2,0.1,0.2v0l0,0v0c0,0.1,0,0.1,0.1,0.2l0,0l0,0v0l0,0l0,0l0,0.1l0,0l0,0l0,0l0,0l0,0l0,0.1v0l0,0l0,0l0,0l0,0l0,0l0,0
		l0,0.1l0,0l0,0l0,0.1l0,0l0,0c0,0,0,0.1,0,0.1l0,0l0,0l0,0l0,0l0,0.1l0,0c0,0,0,0,0,0.1l0,0l0,0l0,0l0,0l0,0l0,0l0,0l0,0l0,0l0,0
		l0,0l0,0l0,0l0,0l0,0l0,0l0,0l0,0l0,0l0,0l0,0l0,0l0,0l0,0l0,0l0,0l0,0l0,0l0,0l0,0l0,0l0,0l0,0c0,0,0,0,0,0l0,0l0,0l0,0l0,0l0,0
		l0,0l0,0l0,0l0,0l0,0l0,0l0,0l0,0l0,0c0,0,0,0,0,0l0,0l0,0l0,0c0,0,0,0,0,0v0l0,0l0,0l0,0l0,0l0,0l0,0l0,0l0,0c0,0,0,0.1,0,0.1l0,0
		l0,0l0,0c0,0,0,0,0,0l0,0c0,0,0,0,0,0l0,0l0,0l0,0c0,0,0,0.1,0,0.1l0,0l0,0l0,0l0,0l0,0c0,0,0,0,0,0l0,0c0,0,0,0,0,0l0,0v0l0,0l0,0
		l0,0l0,0l0,0l0,0c0,0,0,0,0,0l0,0c0,0,0,0.1,0,0.1v0c0,0,0,0,0,0l0,0l0,0l0,0l0,0l0,0c0,0,0,0.1,0,0.1l0,0l0,0l0,0l0,0l0,0l0,0l0,0
		l0,0l0,0c0,0,0,0.1,0,0.1l0,0l0,0l0,0l0,0c0,0,0,0,0,0l0,0c0,0,0,0,0,0v0l0,0l0,0l0,0l0,0l0,0l0,0l0,0l0,0l0,0l0,0l0,0
		c0,0,0,0.1,0,0.1l0,0l0,0l0,0c0,0,0,0,0,0l0,0c0,0,0,0,0,0l0,0l0,0v0c0,0,0,0,0,0v0l0,0v0l0,0l0,0l0,0v0c0,0,0,0,0,0l0,0
		c0,0,0,0,0,0l0,0c0,0,0,0,0,0l0,0c0,0,0,0,0,0l0,0l0,0l0,0c0,0,0,0,0,0v0l0,0v0c0,0,0,0,0,0l0,0c0,0,0,0,0,0l0,0l0,0l0,0l0,0l0,0
		l0,0v0c0,0,0,0,0,0v0c0,0,0,0,0,0v0l0,0v0l0,0v0c0,0,0,0,0,0l0,0l0,0l0,0c0,0,0,0,0,0v0l0,0v0l0,0l0,0c0,0,0,0,0,0v0l0,0l0,0l0,0
		l0,0l0,0l0,0l0,0v0c0,0,0,0,0,0l0,0c0,0,0,0,0,0v0c0,0,0,0,0,0v0l0,0l0,0l0,0v0l0,0v0l0,0v0l0,0v0c0,0,0,0,0,0l0,0l0,0c0,0,0,0,0,0
		h0l0,0l0,0l0,0l0,0v0l0,0l0,0v0c0,0,0,0,0,0l0,0c0,0,0,0,0,0v0l0,0l0,0v0l0,0c0.8,6.5-1,13.1-4.9,18.2c-0.4,0.5-0.8,1-1.2,1.5
		c0,0,0,0,0,0h0l0,0l0,0l0,0l0,0c0,0,0,0,0,0l0,0l0,0l0,0l0,0l0,0l0,0l0,0l0,0l0,0l0,0l0,0l0,0l0,0l0,0l0,0c0,0,0,0,0,0l0,0l0,0l0,0
		l0,0l0,0l0,0l0,0l0,0l0,0c0,0,0,0,0,0l0,0c0,0,0,0,0,0l0,0l0,0l0,0l0,0l0,0l0,0l-0.1,0.1l0,0l0,0l0,0l0,0l0,0l0,0l-0.1,0.1l0,0l0,0
		l0,0l0,0l0,0l0,0l0,0l-0.1,0.1l0,0l-0.1,0.1l0,0l0,0l0,0l0,0l0,0l0,0l0,0l0,0l0,0l0,0l0,0l0,0c0,0,0,0,0,0l0,0l0,0l0,0l0,0l0,0l0,0
		l0,0l0,0l0,0l0,0l0,0l0,0l0,0l0,0l0,0l0,0l0,0l0,0l0,0c0,0,0,0-0.1,0.1l0,0c0,0,0,0-0.1,0.1h0c0,0,0,0-0.1,0.1l0,0
		c-0.4,0.4-0.8,0.7-1.3,1.1h0c0,0,0,0-0.1,0.1h0c0,0,0,0-0.1,0.1l0,0l0,0h0l0,0l0,0l0,0l0,0l0,0l0,0l0,0l0,0l0,0l0,0l0,0l0,0l0,0
		l0,0l0,0l0,0l0,0l0,0l0,0l0,0l0,0l0,0l0,0l0,0l0,0l0,0l0,0l0,0l0,0l0,0l0,0l0,0l0,0l0,0l0,0l0,0l0,0l0,0l0,0l0,0c0,0,0,0,0,0l0,0
		l0,0l0,0l0,0l0,0l0,0l0,0l0,0l0,0l0,0l0,0l0,0l0,0l0,0l0,0l0,0l0,0l0,0l0,0l0,0l0,0l0,0l0,0l0,0l0,0l0,0l0,0l0,0l0,0l0,0l0,0l0,0
		l0,0l0,0l0,0l0,0l0,0l0,0l0,0l0,0l0,0l0,0l0,0l0,0l0,0l0,0l0,0l0,0l0,0l0,0l0,0l0,0l0,0l0,0l0,0l0,0l0,0l0,0l0,0l0,0l0,0l0,0l0,0
		l0,0l0,0l0,0l0,0l0,0l0,0l0,0l0,0l0,0l0,0l0,0l0,0l0,0l0,0c0,0,0,0,0,0l0,0l0,0l0,0l0,0l0,0l0,0l0,0l0,0l0,0l0,0l0,0l0,0l0,0l0,0
		l0,0l0,0l0,0l0,0l0,0l0,0l-0.1,0l0,0l0,0l0,0l0,0l0,0l0,0l0,0l0,0l0,0l0,0l0,0l0,0l0,0l0,0l0,0l0,0l0,0l0,0l0,0l0,0l0,0l0,0l0,0
		l0,0l0,0l0,0l0,0l0,0l0,0l0,0l0,0l0,0l0,0l0,0c-0.5,0.3-1.1,0.6-1.6,0.9l0,0l0,0c-2.4,1.1-4.9,1.8-7.5,2.1l0,0h0c0,0-0.1,0-0.1,0
		l-0.1,0h0l-0.1,0h0l0,0h0l-0.1,0h0l-0.1,0h0l0,0h0l0,0h0l0,0h0l0,0h0c0,0-0.1,0-0.1,0h0l0,0h0l0,0h0l0,0l0,0l0,0h0l0,0h0l0,0h0l0,0
		h0l0,0h0c0,0,0,0,0,0h0l0,0h0l0,0h0l0,0h0c0,0-0.1,0-0.1,0h0c-0.1,0-0.1,0-0.2,0l0,0c-1.7,0.1-3.4,0.1-5.1,0.1h-0.1
		c0,0-0.1,0-0.1,0h-0.1c0,0,0,0-0.1,0l0,0c0,0-0.1,0-0.1,0h-0.2l-0.1,0h-0.2c-0.1,0-0.1,0-0.2,0h0l-0.1,0h0c0,0-0.1,0-0.1,0h0
		l-0.1,0h-0.1l0,0h-0.1l-0.1,0h0l-0.1,0h0c0,0-0.1,0-0.1,0h0c0,0-0.1,0-0.1,0l0,0c-0.1,0-0.1,0-0.2,0h0l-0.1,0h0c0,0-0.1,0-0.1,0h0
		c0,0-0.1,0-0.1,0h0c0,0-0.1,0-0.1,0l0,0c0,0-0.1,0-0.1,0l0,0l-0.1,0h0c0,0-0.1,0-0.1,0h0c-0.1,0-0.1,0-0.2,0l0,0l-0.2,0h0
		c-0.1,0-0.1,0-0.2,0h0l-0.1,0h0l-0.1,0h0c0,0-0.1,0-0.1,0h0c-0.1,0-0.1,0-0.2,0h0l-0.2,0l0,0c-0.1,0-0.1,0-0.2,0h0
		c-0.1,0-0.1,0-0.2,0l-0.1,0c-0.1,0-0.3,0-0.4,0l0,0c-6-0.2-12-0.9-17.9-2c-0.1,0-0.1,0-0.2,0l0,0c-0.1,0-0.1,0-0.2,0l0,0l-0.1,0
		l0,0c0,0-0.1,0-0.1,0l0,0l-0.1,0l0,0c0,0-0.1,0-0.1,0l0,0l-0.1,0l0,0l-0.1,0l0,0l-0.1,0l0,0l-0.1,0l0,0c0,0,0,0-0.1,0l0,0l0,0
		l-0.1,0l0,0l0,0l0,0c-0.1,0-0.1,0-0.2,0l0,0c-0.1,0-0.1,0-0.2,0l0,0c-0.5-0.1-1-0.2-1.5-0.3c-0.1,0-0.2,0-0.3-0.1
		c-0.1,0-0.2-0.1-0.3-0.1c-0.5-0.1-1-0.2-1.5-0.3l0,0c0,0,0,0-0.1,0h0c-0.1,0-0.1,0-0.2,0l0,0l-0.1,0l0,0l0,0l0,0l0,0l0,0l0,0
		l-0.1,0l0,0l0,0l-0.1,0l0,0c-0.4-0.1-0.8-0.2-1.1-0.3h0c-0.1,0-0.2,0-0.3-0.1l0,0c0,0,0,0-0.1,0l-0.1,0h0l-0.1,0l0,0
		c-0.1,0-0.2,0-0.3-0.1l0,0l-0.1,0h0c0,0-0.1,0-0.1,0h0c-0.5-0.1-1-0.3-1.5-0.4h0c0,0,0,0-0.1,0l-0.1,0l0,0l-0.1,0l0,0l-0.1,0l0,0
		l-0.1,0l0,0l0,0l0,0l0,0l0,0l0,0l0,0l0,0l0,0l-0.1,0l0,0l0,0l0,0l0,0l0,0l0,0c0,0,0,0,0,0l0,0l0,0l0,0l0,0l0,0l0,0l0,0l0,0l0,0l0,0
		l0,0l0,0l0,0l0,0l0,0l0,0l0,0l0,0l0,0l0,0l0,0l0,0l0,0l0,0l0,0l0,0l0,0l0,0l0,0l0,0l0,0l0,0l0,0l0,0l0,0l-0.1,0l0,0l0,0l0,0l0,0
		l0,0l0,0l0,0l0,0l0,0l0,0l0,0l0,0l0,0l0,0l0,0l-0.1,0l0,0l0,0l0,0h0l0,0v0l0,0l0,0l0,0l0,0h0l0,0h0l0,0h0l0,0l0,0l0,0v0l0,0h0l0,0
		h0l0,0c-0.1,0-0.1,0-0.2-0.1c-0.9-0.3-1.7-0.8-2.5-1.3l0,0c0,0-0.1-0.1-0.2-0.1c0,0-0.1,0-0.1-0.1l0,0c-0.1,0-0.1-0.1-0.2-0.1
		c0,0,0,0,0,0l0,0c0,0,0,0,0,0l0,0l0,0l0,0l0,0l0,0l0,0l0,0l0,0l0,0h0l0,0l0,0l0,0l0,0l0,0l0,0l0,0l0,0l0,0l0,0l0,0l0,0l0,0l0,0l0,0
		l0,0v0l0,0l0,0l0,0l0,0l0,0l0,0l0,0l0,0l0,0l0,0l0,0l0,0l0,0l0,0l0,0l0,0l0,0l0,0l0,0l0,0l0,0l0,0l0,0l0,0l0,0l0,0l0,0l0,0l0,0l0,0
		l0,0l0,0l0,0l0,0l0,0l0,0l0,0l0,0l0,0l0,0l0,0l0,0l0,0l0,0l0,0l0,0l0,0l0,0l0,0l0,0l0,0l0,0l0,0l0,0l0,0l0,0l0,0l0,0l0,0l0,0l0,0
		l0,0l0,0l0,0l0,0l0,0l0,0l0,0l0,0l0,0l0,0l0,0l0,0l0,0l0,0l0,0l0,0l0,0l0,0l0,0l0,0l0,0l0,0l0,0l0,0l0,0l0,0l0,0l0,0l0,0l0,0l0,0
		l0,0l0,0l0,0l0,0v0l0,0l0,0l0,0l0,0l0,0h0l0,0l0,0l0,0l0,0c0,0,0,0,0,0l0,0c0,0,0,0,0,0l0,0l0,0l0,0l0,0l0,0l0,0c0,0,0,0,0,0l0,0
		l0,0c0,0,0,0,0,0l0,0l0,0l0,0l0,0l0,0l0,0c0,0,0,0,0,0l0,0c0,0,0,0,0,0l0,0l0,0l0,0c0,0,0,0,0,0c0,0-0.1-0.1-0.1-0.1l0,0l0,0l0,0
		l0,0l0,0h0l0,0l0,0l0,0l0,0c0,0-0.1-0.1-0.1-0.1h0c0,0-0.1-0.1-0.1-0.1v0c0,0,0,0-0.1-0.1l0,0c0,0-0.1-0.1-0.1-0.1l0,0
		c-0.1-0.1-0.2-0.2-0.3-0.3l0,0c0,0-0.1-0.1-0.1-0.1v0c-0.1-0.1-0.1-0.1-0.2-0.2l0,0c0,0,0,0-0.1-0.1v0c0,0-0.1-0.1-0.1-0.1
		c0,0,0,0,0-0.1s0,0,0-0.1v0c0,0-0.1-0.1-0.1-0.1v0c0,0,0-0.1-0.1-0.1h0c0,0,0,0,0-0.1l0,0l0-0.1l0,0c0,0,0-0.1-0.1-0.1l0-0.1h0
		c0,0,0,0,0-0.1v0l-0.1-0.1l0,0c-0.1-0.1-0.2-0.2-0.2-0.3c0,0,0-0.1-0.1-0.1c-0.1-0.1-0.1-0.1-0.2-0.2c0,0,0,0,0-0.1
		c0,0-0.1-0.1-0.1-0.1v0l-0.1-0.1v0c0,0,0,0,0-0.1l0,0l0-0.1l0,0c0,0,0-0.1-0.1-0.1l0,0l0-0.1l0,0c0,0,0,0,0-0.1l0,0
		c0,0,0-0.1-0.1-0.1l0,0c0,0,0,0,0-0.1l0,0l0-0.1l0,0l0,0l0,0l0,0l0,0l0,0c0,0,0,0,0-0.1l0,0l0,0l0,0l0,0l0,0c0,0,0,0,0-0.1l0,0
		l0-0.1l0,0l0,0l0,0c0,0,0,0,0,0l0,0l0,0c0,0,0,0,0,0l0,0l0,0l0,0l0,0l0,0l0,0l0,0l0,0l0,0l0,0l0,0c0,0,0,0,0-0.1l0,0l0,0l0,0l0,0
		l0,0l0,0c0,0,0,0,0,0l0,0l0,0l0,0l0,0l0,0l0,0l0,0l0,0l0,0c0,0,0,0,0,0l0,0l0,0l0,0c0,0,0,0,0,0l0,0l0,0l0,0l0,0l0,0l0,0l0,0l0,0
		l0,0c0,0,0,0,0,0l0,0l0,0l0,0l0,0l0,0l0,0l0,0l0,0l0,0l0,0l0,0l0,0l0,0l0,0l0,0l0,0l0,0l0,0l0,0l0,0l0,0l0,0l0,0l0,0l0,0l0,0l0,0
		l0,0l0,0l0,0l0,0l0,0l0,0l0,0l0,0l0,0l0,0l0,0l0,0l0,0l0,0l0,0l0,0l0,0l0,0l0-0.1l0,0l0,0l0,0l0,0l0,0l0,0l0,0l0,0l0,0l-0.1-0.1
		l0,0l0-0.1l0,0l0-0.1l0,0l0,0l0,0l0,0l0,0l0,0l0,0l0,0l0,0l0,0l0,0l0,0l0,0l0,0l0,0l0,0l0,0l0,0l0,0l0,0l0,0
		c-1.4-3.2-5-4.6-8.1-3.2c-3.1,1.4-4.4,5.2-3.1,8.3c4.2,9.7,12.2,15.9,18.3,17.7c3.2,0.9,6.5,1.8,9.9,2.5c0.1,0,0.2,0,0.4,0.1
		c0.1,0,0.2,0.1,0.4,0.1c9.7,2,19.5,3,29.3,3c1.9,0,3.7,0,5.6-0.1c11-0.4,21.2-5.9,27.8-14.9c6.6-8.9,9.1-20.4,6.7-31.3
		c-1-4.9-2.9-9.6-5.4-13.9C429.4,210.4,427.4,209.3,425.4,209.3z"/>
	<path class="st7" d="M485.8,196c-2.7,0-5.1,1.8-5.9,4.5l-0.1,0.5c0,0.1,0,0.2-0.1,0.2c0,0.1-0.1,0.2-0.1,0.3
		c-3.8,12-13.7,23.2-27.9,31.5c-2.9,1.7-4,5.6-2.3,8.6c1.6,3,5.4,4.1,8.3,2.4c16.6-9.7,28.7-23.2,33.5-38.6c0-0.1,0.1-0.2,0.1-0.3
		c0-0.1,0.1-0.2,0.1-0.3l0-0.1l0,0c0.1-0.2,0.1-0.4,0.2-0.7v0c0,0,0-0.1,0-0.1c0.9-3.3-0.9-6.8-4.1-7.7
		C486.9,196.1,486.3,196,485.8,196z"/>
	<path class="st7" d="M480.2,156.3C480.2,156.3,480.2,156.2,480.2,156.3L480.2,156.3L480.2,156.3
		C480.2,156.2,480.2,156.2,480.2,156.3L480.2,156.3c0-0.1,0-0.1-0.1-0.1l0,0v0c0,0,0,0,0,0c0,0,0,0,0,0l0-0.1c0,0,0,0,0,0
		c-0.1-0.3-0.3-0.5-0.4-0.8l0,0v0c0,0,0,0,0,0c0,0,0,0,0,0c0,0,0,0,0,0l0,0c0,0,0,0,0,0v0c0,0,0,0,0,0l0,0c0,0,0,0,0,0l0,0l0,0l0,0
		l0,0l0,0l0,0l0,0c0,0,0,0,0,0l0,0c0,0,0,0,0,0l0,0c0,0,0,0,0,0l0,0c0,0,0,0,0,0l0,0l0,0l0,0l0,0l0,0l0,0l0,0c0,0,0,0,0,0l0,0l0,0v0
		c0,0,0,0,0,0l0,0c0,0,0,0,0,0l0,0l0,0l0,0c0,0,0,0,0,0l0,0c0,0,0,0,0,0l0,0l0,0l0,0c0,0,0,0,0,0l0,0c0,0,0,0,0,0l0,0c0,0,0,0,0,0
		l0,0c0,0,0,0,0,0l0,0c0,0,0,0,0,0v0c0,0,0,0,0,0c0,0,0,0,0,0v0c-0.1-0.1-0.2-0.2-0.2-0.4l0,0l0,0l0,0l0,0l0,0l0,0l0,0l0,0l0,0l0,0
		c0,0,0,0,0,0l0,0l0,0l0,0l0,0l0,0c0,0,0,0,0,0l0,0l0,0l0,0l0,0l0,0c0,0,0,0,0,0l0,0c0,0,0,0,0,0l0,0l0,0l0,0l0,0l0,0l0,0l0,0l0,0
		l0,0c0,0,0,0,0,0l0,0l0,0l0,0l0,0l0,0l0,0l0,0l0,0l0,0c0,0,0,0,0,0l0,0c0,0,0,0,0,0l0,0l0,0l0,0l0,0l0,0l0,0l0,0l0,0l0,0
		c0,0,0,0,0,0l0,0l0,0l0,0l0,0l0,0c0,0,0,0,0,0l0,0l0,0l0,0l0,0c0,0,0,0,0,0l0,0l0,0l0,0l0,0l0,0l0,0l0,0l0,0l0,0l0,0l0,0l0,0l0,0
		l0,0c0,0,0,0,0,0l0,0c0,0,0,0,0,0l0,0c0,0,0,0,0,0l0,0l0,0l0,0c0,0,0,0,0,0l0,0c0,0,0,0,0,0c0,0,0,0,0,0c0,0,0,0,0,0l0,0l0,0
		c0,0,0,0,0,0c0,0,0,0,0,0l0,0l0,0c-0.2-0.2-0.4-0.4-0.5-0.6l0,0c0,0,0,0,0,0c0,0,0,0,0,0l0,0c0,0,0,0,0,0c-0.1-0.1-0.2-0.2-0.3-0.4
		c-0.1-0.1-0.1-0.1-0.2-0.2c-0.1-0.1-0.1-0.1-0.2-0.2c-2.5-2.6-5.2-5-8-7.3l0,0l-0.2-0.2v0c0,0-0.1-0.1-0.2-0.1l0,0
		c0,0-0.1-0.1-0.1-0.1l0,0c0,0,0,0-0.1-0.1c0,0,0,0,0,0c0,0-0.1-0.1-0.1-0.1l0,0c0,0,0,0-0.1-0.1l0,0c0,0,0,0-0.1-0.1l0,0
		c0,0,0,0-0.1,0l0,0l-0.1-0.1l0,0c0,0,0,0-0.1,0c0,0,0,0,0,0l-0.1,0l0,0c-2.7-2.1-6.5-1.5-8.5,1.3c-2,2.8-1.4,6.7,1.3,8.8
		c2.2,1.7,4.4,3.6,6.4,5.6c-0.2,0-0.4,0-0.5,0c-7.2,0-25.4-0.7-38.3-7.3c-2.6-1.3-5.2-2.8-7.9-4.4c-2.9-1.8-6.6-0.8-8.4,2.1
		c-1.7,3-0.8,6.9,2.1,8.7c0,0,0.1,0,0.1,0.1c0.5,0.3,1.1,0.7,1.6,1c0,0,0,0,0,0c0,0,0,0,0,0c0,0,0,0,0,0l0.1,0l0,0c0,0,0,0,0,0
		c0,0,0,0,0,0c0,0,0,0,0,0l0,0l0,0c0,0,0.1,0,0.1,0l0,0c0,0,0,0,0,0l0,0l0,0v0c1.2,0.7,2.5,1.4,3.7,2.1l0,0l0,0l0,0l0.1,0.1l0,0
		c0,0,0,0,0,0l0,0c0,0,0,0,0,0c0,0,0.1,0,0.1,0c0,0,0,0,0,0c0,0,0,0,0,0l0,0c0,0,0,0,0,0c0,0,0,0,0,0c0,0,0,0,0.1,0c0,0,0,0,0,0
		c0,0,0,0,0,0c0,0,0,0,0,0c0,0,0,0,0,0c0,0,0,0,0,0l0,0c0,0,0,0,0,0c0,0,0,0,0,0c0,0,0,0,0,0c0,0,0,0,0,0c0,0,0,0,0,0c0,0,0,0,0,0
		c0,0,0,0,0.1,0l0,0c0,0,0,0,0,0l0,0c0,0,0,0,0.1,0l0,0c0,0,0,0,0.1,0l0.1,0l0,0c0,0,0,0,0.1,0l0,0c0,0,0,0,0.1,0l0,0c0,0,0,0,0.1,0
		c0,0,0,0,0,0c0,0,0,0,0.1,0h0c0,0,0.1,0,0.1,0.1l0,0c0,0,0,0,0.1,0l0,0c0,0,0.1,0,0.1,0.1l0,0l0.2,0.1l0,0c0,0,0,0,0.1,0l0,0
		c0,0,0.1,0,0.1,0.1l0,0c0,0,0,0,0.1,0l0,0c0,0,0.1,0,0.1,0.1l0,0c0,0,0,0,0.1,0l0,0c0,0,0.1,0,0.1,0.1l0,0l0.1,0c0,0,0,0,0.1,0
		c15,7.6,34.7,8.6,43.7,8.6h0.3h0.1h0.1h0.1h0.1c2.4,0,3.9-0.1,4.1-0.1h0.1l0,0h0.1c0,0,0,0,0,0h0.1l0,0h0h0h0h0h0c0,0,0,0,0,0h0h0
		h0l0,0h0c0,0,0,0,0,0h0h0h0c0,0,0,0,0,0h0h0h0l0,0h0c0,0,0,0,0,0h0h0c0,0,0,0,0,0c0,0,0,0,0,0h0l0,0h0h0c0,0,0,0,0,0h0l0,0h0h0l0,0
		h0l0,0h0l0,0h0l0,0h0l0,0h0l0,0h0l0,0h0c0,0,0,0,0,0h0c0,0,0,0,0,0l0,0h0l0,0h0l0,0l0,0h0l0,0h0c0,0,0,0,0,0h0l0,0l0,0h0l0,0
		c0,0,0,0,0,0h0l0,0l0,0h0l0,0l0,0h0l0,0h0l0,0l0,0c0.1,0,0.1,0,0.2,0h0c0,0,0,0,0,0h0c0,0,0,0,0,0h0c0,0,0,0,0,0h0c0,0,0,0,0,0h0
		l0,0h0c0,0,0,0,0,0l0,0l0,0l0,0c0,0,0,0,0,0l0,0l0,0l0,0l0,0l0,0l0,0l0,0c0,0,0,0,0,0l0,0l0,0l0,0l0,0l0,0c0,0,0,0,0,0h0
		c0,0,0,0,0,0h0l0,0h0l0,0l0,0l0,0h0l0,0l0,0c0,0,0,0,0,0l0,0l0,0h0l0,0h0l0,0l0,0l0,0h0l0,0l0,0c0,0,0,0,0,0h0c0,0,0,0,0,0l0,0
		c0,0,0,0,0,0l0,0c0,0,0,0,0,0l0,0l0,0l0,0l0,0h0l0,0l0,0c0,0,0,0,0,0h0l0,0c0.2-0.1,0.4-0.1,0.6-0.2h0l0,0c0,0,0,0,0.1,0
		c0,0,0.1,0,0.1,0h0c0,0,0.1,0,0.1,0h0c0,0,0,0,0,0h0c0,0,0,0,0,0h0c0,0,0,0,0,0v0c1.5-0.5,2.8-1.4,3.9-2.6l0,0l0,0l0,0l0,0
		c0,0,0,0,0,0c0,0,0,0,0,0l0,0l0,0c0,0,0,0,0,0l0,0c0,0,0,0,0,0l0,0c0,0,0,0,0,0h0l0,0h0c0,0,0,0,0,0l0,0c0,0,0,0,0,0l0,0
		c0,0,0,0,0,0l0,0c0,0,0,0,0,0v0c0,0,0,0,0,0l0,0l0,0l0,0c0,0,0,0,0,0l0,0l0,0l0,0l0,0l0,0c0,0,0,0,0,0l0,0l0,0l0,0l0,0l0,0l0,0h0
		l0,0c0,0,0,0,0,0l0,0c0,0,0,0,0,0c0,0,0,0,0,0l0,0c0,0,0,0,0,0l0,0c0,0,0,0,0.1-0.1l0,0c0,0,0.1-0.1,0.1-0.1l0,0l0,0l0,0l0,0l0,0
		c0,0,0,0,0,0l0,0l0,0l0,0l0,0l0,0l0,0l0,0c0,0,0,0,0,0l0,0l0,0l0,0l0,0l0,0c0,0,0,0,0,0l0,0l0,0l0,0l0,0l0,0l0,0l0,0l0,0l0,0l0,0
		l0,0l0,0l0,0l0,0c0,0,0,0,0,0l0,0l0,0l0,0l0,0l0,0l0,0l0,0l0,0l0,0c0,0,0,0,0,0l0,0l0,0l0,0l0,0l0,0l0,0l0,0l0,0l0,0l0,0l0,0l0,0
		l0,0l0,0l0,0l0,0l0,0l0,0v0c0,0,0,0,0,0s0,0,0,0c0.5-0.7,0.9-1.5,1.1-2.4c0,0,0,0,0,0c0,0,0,0,0,0v0c0,0,0,0,0,0l0,0c0,0,0,0,0,0v0
		c0,0,0,0,0,0l0,0l0,0v0c0,0,0,0,0,0l0,0l0,0v0c0,0,0,0,0,0l0,0c0,0,0,0,0,0v0l0,0l0,0l0,0l0,0l0,0l0,0l0,0l0,0l0,0l0,0l0,0l0,0l0,0
		l0,0c0,0,0,0,0,0v0l0,0l0,0c0,0,0,0,0,0l0,0l0,0l0,0l0,0l0,0l0,0l0,0l0,0v0l0,0l0,0l0,0l0,0l0,0l0,0l0,0l0,0l0,0l0,0l0,0l0,0l0,0
		l0,0l0,0l0,0l0,0l0,0l0,0l0,0l0,0l0,0l0,0c0,0,0,0,0,0v0c0,0,0,0,0,0v0l0,0l0,0l0,0l0,0l0,0l0,0l0,0l0,0c0,0,0,0,0,0l0,0l0,0l0,0
		c0,0,0,0,0,0l0,0l0,0l0,0l0,0l0,0l0,0l0,0l0,0l0,0v0l0,0v0c0,0,0,0,0,0l0,0c0,0,0,0,0,0v0c0,0,0,0,0,0l0,0l0,0v0l0,0v0l0,0l0,0l0,0
		l0,0l0,0l0,0c0,0,0,0,0,0l0,0l0,0l0,0c0,0,0,0,0,0v0l0,0l0,0l0,0l0,0l0,0v0l0,0v0l0,0v0l0,0l0,0l0,0v0l0,0l0,0l0,0l0,0l0,0l0,0
		c0,0,0,0,0,0v0c0,0,0,0,0,0l0,0l0,0v0l0,0v0c0,0,0,0,0,0v0c0-0.2,0.1-0.5,0.1-0.7c0-0.1,0-0.3,0-0.4v0
		C481.2,159.6,480.9,157.8,480.2,156.3z"/>
	<path class="st7" d="M407,175.5c-2.6,0-4.9,1.7-5.9,4.2l0,0c0,0,0,0,0,0l0,0c-2.7,5.2-4.1,10.9-4.1,16.8c0,9.8,3.7,19.1,10.4,26
		c2.5,2.5,3.8,4.6,4.8,9.1c0.8,3.6,0,7.4-2.2,10.3c-2.2,3-5.7,4.9-9.3,5c-1.6,0.1-3.1,0.1-4.7,0.1c-11.1,0-22.1-1.5-32.8-4.5
		c-0.7-0.5-4-2.9-4-8.6l-0.1-2.4c-0.1-3.4-2.8-6-6.1-6c-0.1,0-0.2,0-0.3,0c-3.4,0.2-6,3.1-5.8,6.6c0,0.8,0.1,1.5,0.1,2.2v0.3l0,0v0
		v0v0v0l0,0v0.1l0,0v0l0,0.1v0.1l0,0v0l0,0v0.1l0,0v0l0,0v0l0,0v0l0,0v0l0,0v0l0,0v0c0,0,0,0,0,0v0l0,0v0l0,0v0l0,0v0l0,0v0l0,0v0
		l0,0l0,0v0l0,0v0l0,0v0l0,0v0l0,0v0l0,0l0,0v0l0,0v0l0,0v0l0,0v0l0,0v0l0,0l0,0v0l0,0v0c0,0,0,0,0,0.1v0l0,0v0l0,0v0l0,0l0,0l0,0v0
		l0,0l0,0v0l0,0l0,0l0,0v0l0,0l0,0v0l0,0l0,0l0,0v0l0,0l0,0l0,0v0c0,0,0,0,0,0l0,0v0l0,0l0,0.1v0l0,0l0,0l0,0v0l0,0c0,0,0,0,0,0.1
		l0,0l0,0.1l0,0l0,0v0l0,0l0,0l0,0l0,0l0,0c0,0,0,0,0,0v0l0,0l0,0l0,0l0,0l0,0l0,0l0,0l0,0l0,0l0,0l0,0l0,0l0,0l0,0l0,0l0,0l0,0l0,0
		l0,0l0,0v0l0,0v0l0,0v0l0,0v0c0,0,0,0,0,0v0l0,0l0,0l0,0l0,0v0l0,0l0,0l0,0l0,0l0,0c0,0,0,0.1,0,0.1v0l0,0l0,0l0,0v0l0,0l0,0l0,0
		l0,0l0,0v0c0,0,0,0.1,0,0.1v0l0,0v0l0,0l0,0l0,0v0l0,0l0,0l0,0v0c0,0,0,0.1,0,0.1l0,0v0l0,0v0l0,0v0c0,0.1,0,0.1,0,0.2v0
		c0,0,0,0,0,0l0,0v0l0,0v0l0,0l0,0c0,0.1,0,0.1,0,0.2h0l0,0v0l0,0v0c0,0.1,0,0.1,0,0.2v0l0,0.1v0c0,0.1,0,0.1,0,0.2l0,0v0
		c0,0.1,0.1,0.3,0.1,0.4v0c0.9,3.6,2.6,6.9,5,9.6l0,0l0,0l0,0h0l0,0l0,0c0,0,0,0,0.1,0.1l0,0l0,0l0,0l0,0v0c0,0,0.1,0.1,0.1,0.1v0
		l0,0l0,0l0,0l0,0c0,0,0.1,0.1,0.1,0.1l0,0l0,0l0,0l0,0l0,0l0,0l0,0l0,0l0,0c0,0,0,0,0,0l0,0l0,0l0,0l0,0l0,0l0,0l0,0c0,0,0,0,0,0
		l0,0l0,0l0,0l0.1,0.1l0,0l0,0l0,0l0,0l0.1,0.1l0,0l0,0l0,0l0,0l0,0l0,0l0.1,0.1l0,0l0,0l0,0l0,0l0,0c0,0,0,0,0.1,0.1l0,0l0,0l0,0
		c0,0,0.1,0.1,0.1,0.1l0,0h0l0,0l0,0c1.4,1.4,3.1,2.5,5,3.3l0,0h0l0,0l0,0l0,0l0,0l0,0l0,0l0,0l0,0l0,0l0,0l0,0l0,0l0,0l0,0l0,0l0,0
		l0,0l0,0l0,0l0,0l0,0l0,0h0l0,0h0l0,0h0l0,0l0,0h0l0,0l0,0l0,0l0,0l0,0l0,0l0,0h0l0,0h0l0,0c11.9,3.4,24.2,5.2,36.6,5.2
		c1.7,0,3.4,0,5.1-0.1l0,0c0.1,0,0.1,0,0.2,0h0c0,0,0.1,0,0.1,0h0l0,0h0l0,0h0l0,0h0c0,0,0,0,0,0h0l0,0h0l0,0h0l0,0h0l0,0h0l0,0l0,0
		l0,0h0l0,0h0l0,0h0c0,0,0.1,0,0.1,0l0,0h0l0,0h0l0,0h0l0,0h0l0,0l0,0l0,0l0.1,0l0,0h0l0,0h0l0.1,0h0l0,0c0,0,0.1,0,0.1,0l0,0
		c2.6-0.3,5.1-1,7.5-2.1h0l0,0v0c0.6-0.3,1.1-0.5,1.6-0.9l0,0c0,0,0,0,0,0l0,0l0,0l0,0l0,0l0,0l0,0l0,0l0,0l0,0l0,0l0,0l0,0l0,0l0,0
		l0,0l0,0l0,0l0,0l0,0l0,0l0,0l0,0l0,0l0,0l0,0l0,0l0,0l0,0l0,0l0,0l0,0l0,0l0,0l0,0l0,0l0,0l0,0l0,0l0,0l0,0l0,0l0,0l0,0l0,0l0,0
		l0,0l0,0l0,0l0,0l0,0l0,0l0,0l0,0l0,0l0,0l0,0l0,0l0,0l0,0l0,0l0,0l0,0l0,0l0,0l0,0l0,0l0,0l0,0l0,0l0,0l0,0l0,0l0,0l0,0l0,0l0,0
		l0,0l0,0l0,0l0,0l0,0l0,0l0,0l0,0l0,0l0,0l0,0l0,0l0,0l0,0l0,0l0,0l0,0l0,0l0,0l0,0l0,0l0,0l0,0l0,0l0,0l0,0l0,0l0,0l0,0l0,0l0,0
		l0,0l0,0l0,0l0,0l0,0l0,0l0,0l0,0l0,0l0,0l0,0l0,0l0,0l0,0l0,0l0,0l0,0l0,0l0,0l0,0l0,0l0,0l0,0l0,0c0,0,0,0,0,0l0,0l0,0l0,0l0,0
		l0,0l0,0l0,0c0,0,0,0,0,0l0,0l0,0l0,0l0,0l0,0l0,0l0,0l0,0l0,0l0,0l0,0l0,0l0,0l0,0l0,0l0,0l0,0l0,0l0,0l0,0l0,0l0,0l0,0l0,0l0,0
		l0,0l0,0l0,0l0,0l0,0l0,0l0,0l0,0l0,0l0,0l0,0l0,0c0,0,0,0,0.1-0.1l0,0c0,0,0,0,0.1-0.1l0,0c0.4-0.4,0.9-0.7,1.3-1.1l0,0
		c0,0,0,0,0.1-0.1v0c0,0,0,0,0.1-0.1l0,0l0.1-0.1l0,0l0,0l0,0l0,0l0,0l0,0l0,0l0,0l0,0l0,0l0,0l0,0l0,0l0,0l0,0l0,0l0,0l0,0l0,0l0,0
		l0,0l0,0l0,0l0,0l0,0l0,0l0,0l0,0l0,0l0,0l0,0l0,0l0,0l0,0l0,0l0.1-0.1l0,0l0,0l0,0l0.1-0.1l0,0l0,0l0,0l0,0l0,0l0.1-0.1l0,0l0,0
		l0,0l0,0l0,0l0,0l0,0l0,0l0,0l0,0l0,0l0,0l0,0l0,0l0,0l0,0l0,0l0,0l0,0l0,0l0,0l0,0l0,0l0,0l0,0l0,0l0,0l0,0l0,0l0,0l0,0l0,0l0,0
		l0,0l0,0c0,0,0,0,0,0l0,0l0,0l0,0l0,0l0,0c4.7-5.4,6.9-12.6,6.1-19.7l0-0.1l0,0v0c0,0,0,0,0,0v0l0,0v0l0,0v0l0,0l0,0l0,0
		c0,0,0,0,0,0v0l0,0c0,0,0,0,0,0s0,0,0,0v0c0,0,0,0,0,0v0l0,0l0,0l0,0l0,0l0,0v0l0,0v0l0,0v0c0,0,0,0,0,0v0c0,0,0,0,0,0v0l0,0l0,0
		l0,0v0l0,0l0,0l0,0v0c0,0,0,0,0,0l0,0c0,0,0,0,0,0v0l0,0v0l0,0l0,0c0,0,0,0,0,0l0,0l0,0v0c0,0,0,0,0,0l0,0c0,0,0,0,0,0l0,0
		c0,0,0,0,0,0l0,0l0,0l0,0c0,0,0,0,0,0l0,0l0,0l0,0l0,0l0,0l0,0l0,0c0,0,0,0,0,0l0,0c0,0,0,0,0,0l0,0l0,0l0,0c0,0,0,0,0,0v0l0,0l0,0
		l0,0l0,0l0,0l0,0c0,0,0,0,0,0l0,0l0,0l0,0l0,0v0c0,0,0,0,0,0l0,0c0,0,0,0,0,0c0,0,0,0,0,0l0,0l0,0l0,0c0,0,0,0,0,0l0,0c0,0,0,0,0,0
		l0,0l0,0l0,0c0,0,0-0.1,0-0.1c-1.5-6.8-4-11-8.1-15.2c-4.4-4.5-6.9-10.7-6.8-17.1c0-3.8,1-7.6,2.7-11c0.1-0.1,0.1-0.2,0.2-0.4
		c0-0.1,0.1-0.1,0.1-0.2c0.1-0.2,0.2-0.5,0.3-0.7l0,0l0,0c0.1-0.2,0.1-0.3,0.2-0.5v0c0.1-0.2,0.1-0.4,0.2-0.6
		c0.8-3.1-0.9-6.3-3.8-7.4C408.4,175.7,407.7,175.5,407,175.5z"/>
	<path class="st7" d="M258.2,219.1c-10.1,0-18.3,8.5-18.3,19c0,3.2,0.8,6.3,2.3,9.1c1.7,3.2,3.7,6.1,6.1,8.8l0,0
		c0,0,0.1,0.1,0.1,0.1v0c0,0.1,0.1,0.1,0.1,0.2l0,0l0.1,0.1l0,0c0,0,0.1,0.1,0.1,0.1l0,0c0,0,0.1,0.1,0.1,0.1l0,0
		c0,0.1,0.1,0.1,0.1,0.2l0,0c0,0,0.1,0.1,0.1,0.1l0,0c0.1,0.1,0.2,0.2,0.2,0.3l0.1,0.1l0,0c0,0,0.1,0.1,0.1,0.1l0,0
		c0,0,0.1,0.1,0.1,0.1l0,0c0,0,0,0,0,0l0,0l0.1,0.1l0,0c0,0,0.1,0.1,0.1,0.1l0,0c0,0,0.1,0.1,0.1,0.1l0,0c0,0,0.1,0.1,0.1,0.1l0,0
		l0,0l0,0l0,0.1l0.1,0.1l0.1,0.1l0,0l0,0l0,0l0,0l0,0l0,0.1l0,0c0,0,0,0,0,0l0,0c0,0,0.1,0.1,0.1,0.1l0,0l0.1,0.1l0,0l0.1,0.1l0,0
		c0,0,0,0,0,0l0,0c0,0,0.1,0.1,0.1,0.1l0,0l0.1,0.1l0,0l0.1,0.1l0,0l0,0l0,0c0,0,0,0,0,0l0,0l0.1,0.1l0,0c0,0,0.1,0.1,0.1,0.1l0,0
		c0,0,0,0,0,0l0,0l0,0l0.1,0.1c0,0,0,0,0,0l0,0l0,0l0.1,0.1l0,0l0,0v0c0,0,0,0,0,0l0,0l0,0l0,0c0,0,0,0,0,0l0,0c0,0,0,0,0,0l0,0
		c0,0,0.1,0.1,0.1,0.1l0,0l0.1,0.1l0,0c0,0,0,0,0,0v0c0,0,0,0,0.1,0l0,0c0,0,0,0,0,0l0,0c0,0,0.1,0.1,0.1,0.1l0,0l0.1,0.1l0,0
		c0,0,0.1,0.1,0.1,0.1l0,0l0,0l0,0c0,0,0.1,0.1,0.1,0.1l0,0c0,0,0.1,0.1,0.1,0.1l0,0c0,0,0.1,0.1,0.1,0.1l0,0c0,0,0,0,0,0
		c0,0,0,0,0.1,0l0,0l0,0l0,0l0.1,0.1l0,0c0,0,0.1,0.1,0.1,0.1l0,0c0,0,0.1,0.1,0.1,0.1c0,0,0,0,0.1,0h0c0,0,0.1,0.1,0.1,0.1l0,0
		c0,0,0.1,0.1,0.1,0.1l0,0c0,0,0.1,0.1,0.1,0.1l0,0c0,0,0.1,0.1,0.1,0.1l0,0l0,0l0,0c0,0,0.1,0.1,0.1,0.1l0,0c0,0,0.1,0.1,0.1,0.1
		l0,0c0.1,0,0.1,0.1,0.2,0.1l0,0c0,0,0.1,0.1,0.1,0.1l0,0l0.1,0.1l0,0c0,0,0.1,0.1,0.1,0.1v0c0.1,0,0.1,0.1,0.2,0.1v0
		c0,0,0.1,0.1,0.1,0.1l0,0c0,0,0.1,0.1,0.1,0.1l0,0c0.1,0.1,0.2,0.2,0.3,0.2l0,0l0.1,0.1l0,0c0,0,0.1,0.1,0.1,0.1l0,0
		c0,0,0.1,0.1,0.1,0.1l0.1,0c0,0,0.1,0.1,0.1,0.1c0,0,0.1,0.1,0.1,0.1l0,0c0.1,0,0.1,0.1,0.2,0.1l0,0c0,0,0.1,0.1,0.1,0.1l0,0
		c0,0,0.1,0.1,0.1,0.1l0,0c0,0,0.1,0.1,0.1,0.1l0,0c0,0,0.1,0.1,0.1,0.1l0,0c0,0,0,0,0.1,0l0,0c0,0,0.1,0.1,0.1,0.1l0,0l0.1,0.1l0,0
		c0,0,0.1,0.1,0.1,0.1c0.1,0.1,0.2,0.2,0.3,0.2h0c7.2,5.6,15.2,10,23.7,13.1v0c0.1,0,0.3,0.1,0.4,0.1l0,0c0.1,0,0.1,0,0.2,0.1l0,0
		c0.1,0,0.1,0,0.2,0.1c0.1,0,0.1,0,0.2,0.1l0,0c0,0,0,0,0.1,0h0c0.1,0,0.1,0,0.2,0.1l0,0l0.1,0.1l0,0c0,0,0,0,0.1,0h0l0.1,0l0,0
		l0.1,0l0,0l0.1,0l0,0c0,0,0,0,0.1,0l0,0l0.1,0.1l0,0c0,0,0,0,0.1,0l0,0c0,0,0,0,0.1,0l0,0c0,0,0,0,0.1,0l0,0c0,0,0,0,0.1,0l0,0
		l0.1,0l0.1,0l0,0l0.1,0l0,0l0.1,0c0.1,0,0.2,0.1,0.2,0.1l0,0c0.1,0,0.1,0,0.2,0.1l0,0c0.1,0,0.1,0,0.2,0.1l0,0l0.2,0.1l0,0
		c0.1,0,0.1,0,0.2,0.1l0.1,0c0.1,0,0.1,0,0.2,0.1c0,0,0,0,0.1,0c0.1,0,0.1,0,0.2,0.1l0.1,0c0.1,0,0.1,0,0.2,0.1l0.1,0
		c0.1,0,0.1,0,0.2,0.1l0.1,0c0,0,0.1,0,0.1,0c0,0,0.1,0,0.1,0l0.2,0.1c0,0,0.1,0,0.1,0c0,0,0.1,0,0.1,0c0,0,0.1,0,0.1,0
		c0,0,0.1,0,0.1,0l0.1,0c0,0,0.1,0,0.1,0c0,0,0.1,0,0.1,0c0,0,0.1,0,0.1,0c0,0,0.1,0,0.1,0l0.1,0l0.2,0.1l0.1,0
		c0.1,0,0.2,0.1,0.2,0.1c0,0,0,0,0,0c0.1,0,0.1,0,0.2,0.1l0,0c0.1,0,0.1,0,0.2,0.1l0,0c5,1.7,10.1,3.3,15.1,5c0.1,0,0.2,0.1,0.3,0.1
		c0.1,0,0.2,0.1,0.3,0.1c0,0,0.1,0,0.1,0c0.2,0.1,0.4,0.1,0.6,0.2c9.6,3.2,19.9-2.3,23-12.3c3.1-10-2.3-20.6-11.9-23.8c0,0,0,0,0,0
		l-0.7-0.2c-0.1,0-0.2-0.1-0.3-0.1c-0.1,0-0.2-0.1-0.3-0.1l-4.2-1.4c-5.1-1.7-10.2-3.3-15.2-5.1c-13-4.5-19.2-10.8-20.8-13.8
		C271,222.9,264.9,219.1,258.2,219.1z"/>
	<path class="st6" d="M353.2,278c-6.7,0-12.2,5.7-12.2,12.6c0,5.4,3.3,10.2,8.3,12l0.2,0.1l0.1,0l0,0l0,0l0.1,0l0.1,0c0,0,0,0,0.1,0
		l0,0c0,0,0,0,0.1,0l0,0c0,0,0.1,0,0.1,0l0,0c0,0,0,0,0.1,0l0,0c0,0,0.1,0,0.1,0l0,0l0.1,0l0,0l0.1,0l0,0l0.1,0l0,0c0,0,0,0,0.1,0
		l0,0c0,0,0.1,0,0.1,0l0,0c0,0,0,0,0.1,0l0,0c0,0,0.1,0,0.1,0l0,0c0,0,0.1,0,0.1,0l0,0l0.2,0.1l0,0l0.1,0l0,0c0,0,0.1,0,0.1,0l0,0
		c0,0,0.1,0,0.1,0l0,0c0,0,0.1,0,0.1,0l0,0c0,0,0.1,0,0.1,0l0,0c0.1,0,0.1,0,0.2,0.1l0,0l0.2,0.1h0c0,0,0.1,0,0.1,0l0,0
		c0.1,0,0.1,0,0.2,0.1l0,0c0.1,0,0.1,0,0.2,0.1l0,0l0.2,0.1l0,0c5.7,1.8,11.6,3.3,17.5,4.3c0.3,0.1,0.7,0.1,1,0.2h0l0.2,0h0
		c0.1,0,0.1,0,0.2,0h0c0.1,0,0.2,0,0.3,0.1h0c0.1,0,0.1,0,0.2,0h0c0.1,0,0.1,0,0.2,0h0c0,0,0.1,0,0.1,0h0c0.1,0,0.1,0,0.2,0l0,0
		c0.1,0,0.1,0,0.2,0l0,0c0.1,0,0.1,0,0.2,0l0,0l0.1,0l0,0c0,0,0.1,0,0.1,0h0l0.1,0c0.1,0,0.1,0,0.2,0l0,0c0.1,0,0.1,0,0.2,0l0.1,0
		l0,0c0,0,0.1,0,0.1,0l0,0c0,0,0.1,0,0.1,0l0,0l0.1,0l0,0l0.1,0l0,0c0.1,0,0.1,0,0.2,0l0,0c0,0,0.1,0,0.1,0l0,0c0,0,0.1,0,0.1,0l0,0
		l0.1,0l0,0l0.1,0l0,0c0,0,0.1,0,0.1,0l0,0c0.1,0,0.1,0,0.2,0l0,0c0,0,0.1,0,0.1,0l0,0l0.1,0l0,0c0,0,0.1,0,0.1,0l0,0
		c0,0,0.1,0,0.1,0l0,0l0.1,0l0,0l0.1,0h0l0.1,0l0,0l0.1,0l0,0l0.1,0l0,0c0,0,0.1,0,0.1,0l0,0c0,0,0.1,0,0.1,0l0,0c0,0,0.1,0,0.1,0
		l0,0l0.1,0l0,0l0.1,0l0,0c0,0,0.1,0,0.1,0l0.1,0l0,0c0,0,0.1,0,0.1,0l0,0c0,0,0.1,0,0.1,0l0,0c0,0,0.1,0,0.1,0l0,0c0,0,0.1,0,0.1,0
		l0,0l0.1,0l0,0c0.1,0,0.1,0,0.2,0l0,0l0.1,0h0l0.1,0l0,0c0,0,0.1,0,0.1,0l0,0l0.1,0l0,0l0.1,0l0,0l0.1,0h0l0.1,0l0,0
		c0,0,0.1,0,0.1,0l0,0c0,0,0.1,0,0.1,0l0,0l0.1,0l0.1,0l0,0c0,0,0.1,0,0.1,0l0,0c0,0,0.1,0,0.1,0l0,0l0.1,0l0,0l0.1,0l0,0
		c0,0,0.1,0,0.1,0l0,0l0.1,0l0,0c0,0,0.1,0,0.1,0l0,0l0.1,0l0,0l0.1,0l0,0l0.1,0l0,0c0.1,0,0.1,0,0.2,0l0,0l0.1,0l0,0
		c0,0,0.1,0,0.1,0l0,0c0,0,0.1,0,0.1,0l0,0c0,0,0.1,0,0.1,0h0c0,0,0.1,0,0.1,0l0,0c0.1,0,0.1,0,0.2,0h0l0.1,0h0l0.1,0l0,0l0.1,0l0,0
		l0.1,0h0c0,0,0.1,0,0.1,0l0,0c0.1,0,0.1,0,0.2,0l0,0c0.1,0,0.1,0,0.2,0l0,0l0.2,0h0l0.1,0h0c0.1,0,0.2,0,0.2,0h0c0.1,0,0.2,0,0.2,0
		h0c0.1,0,0.2,0,0.2,0l0.1,0h0c0.1,0,0.1,0,0.2,0l0,0c0.1,0,0.1,0,0.2,0h0c0.1,0,0.2,0,0.2,0c1.3,0.1,2.7,0.2,4,0.2
		c0.1,0,0.2,0,0.3,0c0.1,0,0.2,0,0.3,0l0,0l0.1,0l0,0c0,0,0,0,0.1,0l0.1,0l0.1,0c0,0,0,0,0.1,0h0c0,0,0.1,0,0.1,0l0,0l0.1,0h0l0.1,0
		h0l0.1,0h0l0.1,0h0c0.1,0,0.2,0,0.2,0h0l0.1,0l0,0l0.1,0h0c0,0,0.1,0,0.1,0h0c0.2,0,0.3,0,0.5,0h0l0.1,0h0c0.2,0,0.3,0,0.5,0h0
		l0.1,0l0,0l0.1,0h0c0.2,0,0.3,0,0.5,0h0c0,0,0.1,0,0.1,0h0l0.1,0h0c0.1,0,0.2,0,0.4,0h0l0.1,0h0c0,0,0.1,0,0.1,0h0c0,0,0.1,0,0.1,0
		h0c0.1,0,0.2,0,0.2,0l0,0h0.1c0,0,0.1,0,0.1,0h0.1l0,0h0.1h0c0.1,0,0.2,0,0.2,0h0l0.1,0h0h0.1h0c0,0,0.1,0,0.1,0h0.4h0.1l0,0h0.1
		h0.1h0.3h0.1h0.2l0,0h0.3h0.1h0l0.1,0h0h0.1h0h0.1l0,0h0.2l0,0h0.1h0.1h0c0,0,0.1,0,0.1,0h0.1l0.1,0h0h0.1h0l0.1,0h0.1
		c1.2,0,2.5-0.1,3.7-0.1c6.7-0.3,12-6.2,11.7-13.1c-0.3-6.8-5.6-12.1-12.2-12.1c-0.2,0-0.3,0-0.5,0c-1.6,0.1-3.2,0.1-4.8,0.1
		c-1.8,0-3.6,0-5.4-0.1c-0.1,0-0.2,0-0.3,0c-0.1,0-0.2,0-0.3,0c-11.1-0.5-22.2-2.6-32.7-6.3C355.9,278.2,354.6,278,353.2,278
		L353.2,278z M482.2,247.9c-3.8,0-7.3,1.8-9.7,4.9c-1.8,2.3-3.7,4.5-5.8,6.6c-0.1,0.1-0.1,0.1-0.2,0.2c-0.1,0.1-0.1,0.1-0.2,0.2
		c-6.9,6.8-16,12.6-26.3,16.9c-6.3,2.6-9.3,10-6.8,16.4c2.5,6.5,9.6,9.6,15.9,7c13.3-5.5,24.8-13,34-22c0.1-0.1,0.2-0.2,0.2-0.2
		c0.1-0.1,0.2-0.2,0.2-0.2l0,0c0,0,0,0,0.1-0.1l0,0c0,0,0,0,0.1-0.1l0,0c0,0,0.1-0.1,0.1-0.1l0,0c0,0,0.1-0.1,0.1-0.1l0,0
		c0,0,0,0,0.1-0.1l0,0c0,0,0.1-0.1,0.1-0.1l0,0c2.4-2.4,4.6-4.9,6.7-7.6l0,0c0,0,0.1-0.1,0.1-0.1l0,0c0,0,0,0,0.1-0.1l0.1-0.1l0,0
		c0,0,0,0,0.1-0.1l0,0c0,0,0.1-0.1,0.1-0.1l0,0c0,0,0,0,0-0.1l0,0l0.1-0.1l0,0c0,0,0,0,0-0.1l0,0l0-0.1l0,0c0,0,0,0,0-0.1l0,0l0-0.1
		l0,0c0,0,0,0,0-0.1l0,0c0,0,0,0,0,0l0,0c4.1-5.5,3.1-13.5-2.2-17.7C487.5,248.8,484.9,247.9,482.2,247.9z"/>
	<g>
		<path class="st8" d="M286.1,184c0-7-8.2-12.6-18.3-12.6c-10.1,0-18.3,5.7-18.3,12.6c0,7,8.2,12.6,18.3,12.6
			C277.9,196.6,286.1,191,286.1,184z"/>
		<path class="st8" d="M308,186.6c-2.7-2.8-6.5-3.5-8.5-1.4c-2,2-1.4,6,1.4,8.8c2.7,2.8,6.5,3.5,8.5,1.4
			C311.3,193.4,310.7,189.4,308,186.6z"/>
		<path class="st8" d="M371.5,158.7c0-7-8.2-12.6-18.3-12.6c-10.1,0-18.3,5.7-18.3,12.6c0,7,8.2,12.6,18.3,12.6
			C363.3,171.3,371.5,165.7,371.5,158.7z"/>
		<path class="st8" d="M395.9,177.7c0,3.5-2.7,6.3-6.1,6.3c-3.4,0-6.1-2.8-6.1-6.3c0-3.5,2.7-6.3,6.1-6.3
			C393.2,171.3,395.9,174.2,395.9,177.7z"/>
		<path class="st8" d="M420.3,139.7c0,3.5-2.7,6.3-6.1,6.3c-3.4,0-6.1-2.8-6.1-6.3c0-3.5,2.7-6.3,6.1-6.3
			C417.6,133.4,420.3,136.3,420.3,139.7z"/>
		<path class="st8" d="M444.7,202.9c0,3.5-2.7,6.3-6.1,6.3c-3.4,0-6.1-2.8-6.1-6.3c0-3.5,2.7-6.3,6.1-6.3
			C442,196.6,444.7,199.4,444.7,202.9z"/>
	</g>
</g>
<g>
	<path class="st9" d="M254.4,344.2c0,5.5-1.9,10.5-5,14.1c-3.1,3.6-7.3,5.8-12,5.8H40.6c-9.4,0-17-8.9-17-19.9
		c0-2.9,0.5-5.7,1.5-8.3c0.9-2.2,2-4.2,3.5-5.8c3.1-3.6,7.3-5.8,12-5.8h196.8c6.9,0,12.8,4.8,15.5,11.7
		C253.8,338.4,254.4,341.2,254.4,344.2z"/>
	<path class="st10" d="M252.8,335.9c-0.9,2.2-2,4.2-3.5,5.8c-3.1,3.6-7.3,5.8-12,5.8H40.6c-6.9,0-12.8-4.8-15.5-11.7
		c0.9-2.2,2-4.2,3.5-5.8c3.1-3.6,7.3-5.8,12-5.8h196.8C244.2,324.2,250.2,329,252.8,335.9z"/>
	<path class="st11" d="M269,380.2c0,25.7-10.1,44.7-26.5,57.4c-16.4,12.7-39.1,18.9-64.1,18.9H99.6c-50.1,0-90.6-25-90.6-76.3
		c0-2.9,0.6-5.6,1.7-8c0.9-2.1,2.2-4,3.8-5.6c3.4-3.5,8.1-5.6,13.2-5.6h222.6c7.5,0,14,4.6,17,11.2C268.4,374.6,269,377.3,269,380.2
		z"/>
	<path class="st12" d="M267.3,372.2c-3.5,17.1-12.4,30.4-24.8,40c-16.4,12.7-39.1,18.9-64.1,18.9H99.6c-44,0-80.7-19.3-88.9-58.9
		c0.9-2.1,2.2-4,3.8-5.6c3.4-3.5,8.1-5.6,13.2-5.6h222.6C257.8,361,264.3,365.6,267.3,372.2z"/>
	<path class="st13" d="M211.3,315.9l-44,51.5c-1.1,1.3-2.3,2.4-3.5,3.4c-9.3,7.4-22.1,6.3-30.3-3.4l-44-51.5H211.3L211.3,315.9z"/>
	<path class="st14" d="M211.3,315.9l-44,51.5c-1.1,1.3-2.3,2.4-3.5,3.4c-3.4-1.3-6.5-3.6-9.2-6.7l-41.2-48.2H211.3L211.3,315.9z"/>
	<path class="st15" d="M264.1,323.1c0,2.7-0.4,5.5-1.2,8.2c-3.2,10.6-11.9,14.7-18.6,8.8l-8.1-7c-5.6-4.9-12.8-2.9-16.9,4.7
		l-0.3,0.6c-3.9,7.3-10.7,9.5-16.3,5.2l-18.1-13.9c-4.2-3.2-9.2-2.8-13.1,0.9l-14.5,13.8c-4.2,4-9.5,4.1-13.8,0.4l-16.5-14.4
		c-4.2-3.7-9.5-3.6-13.6,0.3l-15.1,14c-4,3.8-9.1,4-13.3,0.6L65,329.6c-3.8-3.1-8.5-3.2-12.4-0.2l-18.2,13.9
		c-12.1,1.8-18-8.6-18-8.6c-2.9-5.9-3.2-12.9-1.6-18.8c1.9-7,6.4-12.4,12.3-12.4h223.8c5.8,0,10.4,5.3,12.3,12.4
		C263.7,318.1,264.1,320.6,264.1,323.1z"/>
	<path class="st16" d="M263.1,315.9c-0.1,0.3-0.2,0.6-0.3,0.9c-3.2,10.6-11.9,14.7-18.6,8.8l-8.1-7c-5.6-4.9-12.8-2.9-16.9,4.7
		l-0.3,0.6c-3.9,7.3-10.7,9.5-16.3,5.2l-18.1-13.9c-4.2-3.2-9.2-2.8-13.1,0.9L156.8,330c-4.2,4-9.5,4.1-13.8,0.4l-16.5-14.4
		c-4.2-3.7-9.5-3.5-13.6,0.3l-15.1,14c-4,3.8-9.1,4-13.3,0.6L65,315.1c-3.8-3.1-8.5-3.2-12.4-0.2l-18.2,13.9
		c-12.1,1.8-18-8.6-18-8.6c-0.7-1.4-1.2-2.8-1.6-4.3c1.9-7,6.4-12.4,12.3-12.4h223.8C256.6,303.5,261.2,308.8,263.1,315.9z"/>
	<path class="st17" d="M259.5,290.7c0,2.1-0.2,4-0.7,5.9c-2,8.3-8.6,14.5-16.4,14.5c-30.6,0-111.9-0.8-124.2-0.3c-0.3,0-0.5,0-0.8,0
		c-15.5,0.7-19,3.6-19,13.3v35.4c0,1.8-0.6,3.5-1.6,4.7c-1,1.2-2.4,1.9-4,1.9c-3.1,0-5.6,3-5.6,6.6v15.4c0,1.6-0.2,3.1-0.5,4.5
		c-1.7,8.4-8.2,14.7-16,14.7h-0.4c-8.9,0-16-8.4-16-18.8l0.1-27.9c0-2.1,0.8-4.1,2-5.5c1.2-1.4,2.9-2.3,4.7-2.3
		c3.7,0,6.6-3.5,6.6-7.8v-21c0-7.2-5-13-11.1-13H35.8c-9.3,0-17.2-8.6-17.4-19.6c-0.2-11.2,7.5-20.4,17-20.4h206.7
		C251.5,271.1,259.4,279.8,259.5,290.7z"/>
	<path class="st18" d="M259.5,290.7c0,2.1-0.2,4-0.7,5.9c-32.3,0-109.6-0.8-121.6-0.3c-16.2,0.6-19.9,3.5-19.9,13.3v1.2
		c-15.5,0.7-19,3.6-19,13.3v35.4c0,1.8-0.6,3.5-1.6,4.7c-1,1.2-2.4,1.9-4,1.9c-3.1,0-5.6,3-5.6,6.6v15.4c0,1.6-0.2,3.1-0.5,4.5
		c-7.6-1.4-13.5-9.2-13.4-18.6l0.1-27.9c0-2.1,0.8-4.1,2-5.5c1.2-1.4,2.9-2.3,4.7-2.3c3.7,0,6.6-3.5,6.6-7.8v-21c0-7.2-5-13-11.1-13
		H54.8c-9.3,0-17.2-8.6-17.4-19.6c0-2.1,0.2-4,0.7-5.9h204.1C251.5,271.1,259.4,279.8,259.5,290.7z"/>
	<path class="st13" d="M162,250.8l-37.7,44.2c-3.8,4.4-8.2,7.6-13,9.4c-11.7,4.6-25.2,1.5-34.5-9.4l-37.7-44.2H162z"/>
	<path class="st14" d="M162,250.8l-37.7,44.2c-3.8,4.4-8.2,7.6-13,9.4c-4.7-1.9-9.2-5-13-9.4l-37.7-44.2H162z"/>
	<path class="st11" d="M269,257.1c0,0.3,0,0.7,0,1c-0.2,4.2-1.7,7.9-4.1,10.7c-2.5,3-6.1,4.8-9.9,4.8H23c-7.8,0-14-7.4-14-16.5
		c0-19.7,7.8-34.6,19.6-45.7c9.6-9.1,21.8-15.7,34.5-20.6c35.7-13.6,75.9-13.4,75.9-13.4S269,176.6,269,257.1z"/>
	<path class="st12" d="M269,257.1c0,0.3,0,0.7,0,1H51.6c-7.8,0-14-7.4-14-16.5c0-19.7,7.8-34.6,19.6-45.7c1.9-1.8,3.9-3.5,6-5.1
		c35.7-13.6,75.9-13.4,75.9-13.4S269,176.6,269,257.1z"/>
	<g>
		<path class="st19" d="M208.9,206.2c2.3,2.8,2.1,7.2-0.2,9.8c-2.4,2.6-6.1,2.5-8.4-0.3c-2.3-2.8-6.4-12.5-4-15.1
			S206.6,203.4,208.9,206.2z"/>
		<path class="st19" d="M177.4,240.6c1.2,3.6-0.4,7.6-3.4,9s-6.5-0.4-7.7-4c-1.2-3.6-1.9-14.4,1.2-15.8
			C170.5,228.4,176.2,237,177.4,240.6z"/>
		<path class="st19" d="M144.9,212c0,3.8-2.7,7-5.9,7c-3.3,0-5.9-3.1-5.9-7c0-3.8,2.7-14.2,5.9-14.2
			C142.3,197.7,144.9,208.1,144.9,212z"/>
		<path class="st19" d="M112.2,245c-0.8,3.7-4.1,6-7.2,5c-3.2-1-5.1-4.8-4.3-8.5c0.8-3.7,5.6-13,8.8-12
			C112.7,230.4,113.1,241.2,112.2,245z"/>
		<path class="st19" d="M79.5,214.6c-1.4,3.5-5,4.9-7.9,3.2c-3-1.7-4.2-5.8-2.8-9.3c1.4-3.5,7.7-11.4,10.6-9.8
			C82.4,200.5,81,211.2,79.5,214.6z"/>
	</g>
</g>
<g>
	<g>
		<path class="st20" d="M339,466.2c0.8-0.8,1.1-2,0.6-3.1l-8-18.1c-0.4-1-1.3-1.7-2.5-2L278,429.5c-6.6-1.7-13.2,1.5-14.7,7.3
			c-1.5,5.8,2.6,11.9,9.2,13.6l63,16.6C336.8,467.4,338.1,467.1,339,466.2z"/>
		<path class="st20" d="M321.3,426.1c0.8-0.8,1.1-2,0.6-3.1l-8-18.1c-0.4-1-1.3-1.7-2.5-2l-17.4-4.6c-6.6-1.7-13.2,1.5-14.7,7.3
			c-1.5,5.8,2.6,11.9,9.2,13.6l29.3,7.7C319.1,427.2,320.4,426.9,321.3,426.1z"/>
		<path class="st20" d="M291.7,358.9c0.8-0.8,1.1-2,0.6-3.1l-8-18.1c-0.4-1-1.3-1.7-2.5-2l-19.3-5.1c-6.6-1.7-13.2,1.5-14.7,7.3
			c-1.5,5.8,2.6,11.9,9.2,13.6l31.1,8.2C289.6,360,290.9,359.7,291.7,358.9z"/>
	</g>
	<path class="st21" d="M339,466.2c0.8-0.8,1.1-2,0.6-3.1l-3.1-7L275.3,440c-4.4-1.2-7.7-4.3-9-8c-1.4,1.3-2.5,2.9-3,4.8
		c-1.5,5.8,2.6,11.9,9.2,13.6l63,16.6C336.8,467.4,338.1,467.1,339,466.2z"/>
	<path class="st21" d="M321.3,426.1c0.8-0.8,1.1-2,0.6-3.1l-3.1-7l-27.5-7.2c-4.4-1.2-7.7-4.3-9-8c-1.4,1.3-2.5,2.9-3,4.8
		c-1.5,5.8,2.6,11.9,9.2,13.6l29.3,7.7C319.1,427.2,320.4,426.9,321.3,426.1z"/>
	<path class="st21" d="M291.7,358.9c0.8-0.8,1.1-2,0.6-3.1l-3.1-7l-29.3-7.7c-4.4-1.2-7.7-4.3-9-8c-1.4,1.3-2.5,2.9-3,4.8
		c-1.5,5.8,2.6,11.9,9.2,13.6l31.2,8.2C289.6,360,290.9,359.7,291.7,358.9z"/>
	<path class="st22" d="M345.3,484.4c0.7-0.2,1.5-0.3,2.3-0.3c0.1,0,9.3,0,23.6-4.6c13.6-4.3,34.1-13.7,54.6-33.8
		c20.6-20.1,29.3-39.1,33-51.6c3.9-13.2,3.1-21.4,3.1-21.5c-0.1-0.7,0-1.4,0.2-2.1c0,0,0,0,0,0c0.2-0.8,0.1-1.6-0.4-2.4
		c-0.5-0.7-1.3-1.3-2.2-1.5l-185.8-49.7c-1.3-0.3-2.6,0-3.4,0.8c-0.4,0.4-0.6,0.8-0.8,1.3c-0.2,0.6-0.1,1.2,0.2,1.9l71,161.5
		C341.4,484.1,343.5,485,345.3,484.4z"/>
	<path class="st23" d="M270.3,317.9c-0.4,0.4-0.6,0.8-0.8,1.3c-0.2,0.6-0.1,1.2,0.2,1.9l71,161.5c0.7,1.6,2.8,2.5,4.5,2
		c0.7-0.2,1.5-0.3,2.3-0.3c0.1,0,4.3,0,11.5-1.4l-70.8-161.8l-14.5-3.9C272.5,316.7,271.1,317,270.3,317.9z"/>
	<path class="st24" d="M401,405.4c2.7-10.3-4.7-21.2-16.4-24.3c-11.8-3.1-23.6,2.8-26.3,13.1c-2.7,10.3,4.7,21.2,16.4,24.3
		C386.5,421.6,398.2,415.7,401,405.4z"/>
	<path class="st25" d="M373.2,398.1c2.1-8,9.7-13.3,18.5-13.8c-2.1-1.4-4.5-2.5-7.2-3.2c-11.8-3.1-23.6,2.8-26.3,13
		c-2.7,10.3,4.7,21.2,16.4,24.3c2.6,0.7,5.3,0.9,7.8,0.8C375.1,414.5,371.1,406.1,373.2,398.1z"/>
	<path class="st24" d="M375.3,361.3c4.9-2.4,8.4-6.3,9.8-11.2c0.2-0.8,0.1-1.7-0.4-2.4c-0.5-0.7-1.3-1.3-2.2-1.5l-35.8-9.6
		c-0.9-0.2-1.9-0.2-2.7,0.2c-0.8,0.4-1.3,1.1-1.5,1.8l0,0c-2.5,10.2,4.9,20.9,16.5,24C364.6,364.1,370.4,363.7,375.3,361.3z"/>
	<path class="st25" d="M357.7,342.7C357.7,342.7,357.7,342.7,357.7,342.7c0.2-0.8,0.8-1.5,1.5-1.9c0.6-0.3,1.3-0.4,2-0.4l-14.6-3.9
		c-0.9-0.2-1.9-0.2-2.7,0.2c-0.8,0.4-1.3,1.1-1.5,1.8l0,0c-2.5,10.2,4.9,20.9,16.5,24c2.7,0.7,5.3,1,8,0.8
		C359.7,358.7,355.8,350.5,357.7,342.7z"/>
	<path class="st24" d="M354.9,439.8c2.7-10.3-4.7-21.2-16.4-24.3c-8.7-2.3-17.6,0.2-22.8,6.3c-0.3,0.3-0.5,0.7-0.6,1.1
		c-0.2,0.6-0.1,1.2,0.2,1.9l11.5,26.2c0.4,1,1.4,1.8,2.6,2C341.1,455.7,352.3,449.9,354.9,439.8z"/>
	<path class="st24" d="M385.4,474c8.6-4,16.9-9,24.9-14.9c0.8-0.6,1.2-1.4,1.1-2.3c-0.3-8.9-7.3-16.8-17-19.4
		c-11.8-3.1-23.6,2.8-26.3,13c-2.5,9.7,3.6,19.8,14.4,23.7C383.5,474.4,384.5,474.4,385.4,474z"/>
	<path class="st25" d="M388.9,472.3c-4.7-4.8-6.8-11.4-5.1-17.7c2.1-7.9,9.5-13.2,18.1-13.8c-2.2-1.5-4.8-2.6-7.5-3.4
		c-11.8-3.1-23.6,2.8-26.3,13c-2.5,9.7,3.6,19.8,14.4,23.7c1,0.3,2,0.3,2.9-0.1C386.6,473.4,387.7,472.9,388.9,472.3z"/>
	<path class="st24" d="M443.8,421.7c1.2,0,2.4-0.5,2.9-1.5c5.4-8.6,9.5-17.4,12.1-26.1c0.2-0.6,0.4-1.2,0.5-1.8c0,0,0,0,0,0
		c0.3-1-0.1-2.1-0.9-2.9c-2.9-2.7-6.5-4.7-10.5-5.8c-11.8-3.1-23.6,2.8-26.3,13c-2.7,10.3,4.7,21.2,16.4,24.3
		C439.9,421.4,441.9,421.7,443.8,421.7z"/>
	<path class="st25" d="M445.7,421.3c-6.8-4.9-10.4-12.9-8.4-20.6c2.1-7.9,9.5-13.2,18.1-13.8c-2.3-1.5-4.8-2.6-7.5-3.4
		c-11.8-3.1-23.6,2.8-26.3,13c-2.7,10.3,4.7,21.2,16.4,24.3c1.9,0.5,3.8,0.8,5.8,0.8C444.5,421.7,445.1,421.6,445.7,421.3z"/>
	<path class="st24" d="M304.4,393.3c8.8-0.8,15.7-6.2,17.7-13.8c2.7-10.3-4.7-21.2-16.4-24.3c-5.9-1.6-12.2-0.9-17.2,1.9
		c-0.8,0.4-1.2,1.1-1.4,1.8c-0.2,0.6-0.1,1.2,0.2,1.9l13.4,30.4C301.2,392.6,302.8,393.5,304.4,393.3z"/>
	<path class="st26" d="M348.8,503.4c2,0,48.3-0.2,93.4-44.1c0,0,0,0,0.1,0c45.1-43.9,41.4-85.3,41.2-87.1c-0.7-7-7.7-12.6-15.6-12.4
		c-3.8,0.1-7.3,1.5-9.7,4c-2.5,2.5-3.6,5.7-3.3,9.1c0,0.1,0.6,7.6-2.9,19.4c-3.5,11.8-11.8,30-31.5,49.2
		c-19.7,19.2-39.2,28.2-52.1,32.3c-12.8,4.1-21.3,4.2-21.3,4.2c-3.8,0-7.3,1.3-9.9,3.7c-1.6,1.5-2.7,3.4-3.3,5.4
		c-0.3,1.2-0.4,2.4-0.3,3.6c0.2,3.4,1.9,6.6,4.8,9.1C341.3,502.1,345,503.4,348.8,503.4z"/>
	<path class="st27" d="M343.8,494.5c0,0,10.1-0.1,25.4-5c15.3-4.9,38.6-15.6,62.1-38.5c23.5-22.9,33.4-44.5,37.6-58.6
		c4.1-14,3.5-23,3.5-23.1c-0.3-3,0.4-5.9,2-8.4c-2-0.8-4.1-1.2-6.3-1.1c-3.8,0.1-7.3,1.5-9.7,4c-2.5,2.5-3.6,5.7-3.3,9.1
		c0,0.1,0.6,7.6-2.9,19.4c-3.5,11.8-11.8,30-31.5,49.2c-19.7,19.2-39.2,28.2-52.1,32.3c-12.8,4.1-21.3,4.2-21.3,4.2
		c-3.8,0-7.3,1.3-9.9,3.7c-1.6,1.5-2.7,3.4-3.3,5.4c-0.3,1.2-0.4,2.4-0.3,3.6c0.1,2,0.8,4,1.9,5.8
		C338,495.1,340.8,494.5,343.8,494.5z"/>
	<path class="st25" d="M315.7,421.8c-0.3,0.3-0.5,0.7-0.6,1.1c-0.2,0.6-0.1,1.2,0.2,1.9l11.5,26.2c0.4,1,1.4,1.8,2.6,2
		c5.7,1.3,11.3,0.6,15.9-1.7l-16-36.5C324,415.4,319.1,417.8,315.7,421.8z"/>
	<path class="st25" d="M288.5,357.1c-0.8,0.4-1.2,1.1-1.4,1.8c-0.2,0.6-0.1,1.2,0.2,1.9l13.4,30.4c0.6,1.4,2.2,2.3,3.8,2.1
		c5.2-0.5,9.8-2.6,13-5.8L303,354.7C297.9,353.9,292.7,354.8,288.5,357.1z"/>
</g>
</svg>
