<?xml version="1.0" encoding="utf-8"?>
<!-- Generator: Adobe Illustrator 22.0.1, SVG Export Plug-In . SVG Version: 6.00 Build 0)  -->
<svg version="1.1" id="Capa_1" xmlns="http://www.w3.org/2000/svg" xmlns:xlink="http://www.w3.org/1999/xlink" x="0px" y="0px"
	 height="54" viewBox="0 0 512 512" width="35" style="enable-background:new 0 0 512 512;" xml:space="preserve">
<style type="text/css">
	.st0{fill:#00F437;}
	.st1{fill:#4AFF4F;}
	.st2{fill:#EBEBEB;}
	.st3{fill:#D3D1D1;}
	.st4{fill:#C3B9C6;}
	.st5{fill:#E6BD20;}
	.st6{fill:#414753;}
	.st7{fill:#FBD303;}
	.st8{fill:#00B40F;}
	.st9{fill:#333842;}
	.st10{fill:#F0582F;}
	.st11{fill:#FFFFFC;}
	.st12{fill:#D6FF21;}
</style>
<path class="st0" d="M466.8,210.8C466.8,95.6,374.3,1.9,259.5,0C142.9-1.9,45.9,92.9,45.2,209.5c-0.5,80,43.6,149.7,108.9,185.8
	c13.2,7.3,24.2,18.1,32.4,30.8l47.4,73.7c10.4,16.1,34,16.1,44.4,0l47.4-73.7c8.2-12.7,19.2-23.5,32.5-30.9
	C422.9,359.4,466.8,290.2,466.8,210.8L466.8,210.8z"/>
<path class="st1" d="M466.8,210.8c0,79.4-43.9,148.6-108.8,184.5c-13.2,7.3-24.3,18.1-32.5,30.8l-47.4,73.7
	c-10.4,16.1-34,16.1-44.4,0l-0.7-1.2c6.3-1.5,12.1-5.3,16-11.4l47.4-73.7c8.2-12.7,19.2-23.5,32.5-30.8
	c64.9-35.9,108.8-105.1,108.8-184.5c0-81.2-45.9-151.6-113.1-186.8C407.4,39.9,466.8,118.4,466.8,210.8L466.8,210.8z"/>
<circle class="st2" cx="256" cy="210.8" r="150.7"/>
<path class="st3" d="M406.7,210.8c0,83.2-67.5,150.7-150.7,150.7c-16.9,0-33.1-2.8-48.3-7.9c7.6,1.2,15.4,1.8,23.3,1.8
	c83.2,0,150.7-67.5,150.7-150.7c0-66.4-42.9-122.7-102.5-142.8C351.4,73.1,406.7,135.5,406.7,210.8z"/>
<ellipse class="st4" cx="259.1" cy="211.4" rx="166" ry="163"/>
<path class="st5" d="M354.8,190.1H163.4l12.2-61.6c2-10.6,12.6-18.4,25.2-18.4h116.7c12.4,0,23,7.8,25.2,18.4L354.8,190.1z"/>
<path class="st6" d="M178.7,177.7l9.3-47.1c0.9-4.8,6.4-8.5,12.8-8.5h116.7c6.4,0,11.9,3.7,12.8,8.5l9.3,47.1H178.7z"/>
<path class="st7" d="M382.9,212c-1.5-12.6-12.4-21.9-25.2-21.9H160.5c-12.8,0-23.7,9.3-25.2,21.9l-5.1,41h258L382.9,212z"/>
<path class="st8" d="M388.2,253H130l-1.5,11.9c-1.1,8.2,5.5,15.6,13.9,15.6h233c8.4,0,15-7.4,13.9-15.6L388.2,253z"/>
<g>
	<path class="st9" d="M148.8,306.2c0,3.5,2.9,6.1,6.2,6.1h18.1c3.5,0,6.2-2.8,6.2-6.1v-25.8h-30.5V306.2z"/>
	<path class="st9" d="M338.9,280.6v25.8c0,3.5,2.9,6.1,6.2,6.1h18.1c3.5,0,6.2-2.8,6.2-6.1v-25.8H338.9z"/>
</g>
<ellipse class="st10" cx="178.7" cy="221.6" rx="20.3" ry="20"/>
<ellipse class="st11" cx="178.7" cy="221.6" rx="13" ry="12.8"/>
<ellipse class="st10" cx="339.6" cy="221.6" rx="20.3" ry="20"/>
<g>
	<ellipse class="st12" cx="339.6" cy="221.6" rx="13" ry="12.8"/>
	<rect x="224.2" y="206" class="st12" width="69.8" height="10"/>
	<rect x="224.2" y="227.2" class="st12" width="69.8" height="10"/>
	<polygon class="st12" points="306.6,110 211.6,110 225.5,82.5 292.7,82.5 	"/>
</g>
<g>
	<path class="st10" d="M241,90.5v14.1h-2.9V90.5H233v-2.6h13.3v2.6H241z"/>
	<path class="st10" d="M250.3,100.7l-1.8,3.7h-3.1l7.5-16.7h3.1l7.5,16.7h-3.1l-1.8-3.7H250.3z M257.8,98.1l-3.1-6.9l-3.1,6.9H257.8
		z"/>
	<path class="st10" d="M276.1,104.6l-4.2-6.3h-0.2l-4.2,6.3H264l5.7-8.5l-5.5-8h3.5l3.8,5.6h0.2l3.8-5.6h3.5l-5.5,8l5.7,8.5H276.1z"
		/>
	<path class="st10" d="M282.3,87.9h2.9v16.7h-2.9V87.9z"/>
</g>
</svg>
